<?xml version="1.0" standalone="no"?>
<!DOCTYPE svg PUBLIC "-//W3C//DTD SVG 1.1//EN" "http://www.w3.org/Graphics/SVG/1.1/DTD/svg11.dtd" >
<svg>
<metadata>
Created by FontForge 20120731 at Fri Oct 24 03:10:07 2014
 By root
Copyright (c) 2000 - 2003 Linotype Library GmbH, www.linotype.com. All rights reserved. This software may not be reproduced, used, displayed, modified, disclosed or transferred without the express written approval of Linotype Library GmbH. Frutiger is a trademark of Heidelberger Druckmaschinen AG, exclusively licensed through Linotype Library GmbH, and may be registered in certain jurisdictions. This typeface is original artwork of Adrian Frutiger. The design may be protected in certain jurisdictions.
</metadata>
<defs>
<font id="FrutigerNextLT-Regular" horiz-adv-x="542" >
  <font-face 
    font-family="FrutigerNext LT Regular"
    font-weight="400"
    font-stretch="normal"
    units-per-em="1000"
    panose-1="2 11 5 3 4 5 4 2 2 4"
    ascent="800"
    descent="-200"
    x-height="498"
    cap-height="667"
    bbox="-157 -227 1186 886"
    underline-thickness="50"
    underline-position="-50"
    unicode-range="U+0020-FB02"
  />
<missing-glyph horiz-adv-x="500" 
d="M442 8v496h-384v-496h384zM50 512h400v-512h-400v512z" />
    <glyph glyph-name=".notdef" horiz-adv-x="500" 
d="M442 8v496h-384v-496h384zM50 512h400v-512h-400v512z" />
    <glyph glyph-name=".null" horiz-adv-x="0" 
 />
    <glyph glyph-name="nonmarkingreturn" horiz-adv-x="271" 
 />
    <glyph glyph-name="space" unicode=" " horiz-adv-x="271" 
 />
    <glyph glyph-name="percent" unicode="%" horiz-adv-x="900" 
d="M309 471q0 23 -2 50t-11 50t-27 38t-49 15q-30 0 -48 -15.5t-27 -38.5t-11.5 -49.5t-2.5 -49.5t2 -49.5t11 -49.5t27 -38.5t49 -15.5t48.5 15.5t26.5 38.5t11.5 49.5t2.5 49.5zM770 195q0 23 -2 50t-11 50t-27 38t-49 15q-30 0 -48 -15.5t-27 -38.5t-11.5 -49.5
t-2.5 -49.5t2 -49.5t11 -49.5t27 -38.5t49 -15.5t48.5 15.5t26.5 38.5t11.5 49.5t2.5 49.5zM374 471q0 -35 -7 -71.5t-24 -66.5t-47 -49t-76 -19q-47 0 -77.5 19t-47.5 49t-23.5 66.5t-6.5 71.5q0 34 7 70.5t25 66.5t48 49.5t75 19.5q46 0 76 -19.5t47 -49.5t24 -66.5
t7 -70.5zM269 -24h-59l424 715h59zM835 195q0 -35 -7 -71.5t-24 -66.5t-47 -49t-76 -19q-47 0 -77 19t-47 49t-23.5 66.5t-6.5 71.5q0 34 7 70.5t24.5 66.5t47.5 49.5t75 19.5q46 0 76 -19.5t47 -49.5t24 -66.5t7 -70.5z" />
    <glyph glyph-name="ampersand" unicode="&#x26;" horiz-adv-x="643" 
d="M444 315h-135q-35 0 -67 -7t-56.5 -22.5t-39 -42t-14.5 -65.5q0 -38 15.5 -62.5t40.5 -38.5t56.5 -19.5t64.5 -5.5q36 0 68.5 4.5t66.5 15.5v243zM519 315v-297q-46 -14 -103 -21.5t-107 -7.5q-49 0 -94.5 9t-81 31t-57 58.5t-21.5 90.5q0 36 12.5 65.5t35 51.5t52 35
t64.5 15q-71 7 -109.5 44.5t-38.5 107.5q0 45 20 78.5t53 56t75.5 34t86.5 11.5q42 0 80 -7t76 -21l-4 -69q-37 17 -74 26t-79 9q-30 0 -58.5 -7.5t-51 -22.5t-36 -37t-13.5 -51q0 -38 13 -61.5t35.5 -36.5t52 -17.5t62.5 -4.5h135v79h75v-79h104v-62h-104z" />
    <glyph glyph-name="quotesingle" unicode="'" horiz-adv-x="271" 
d="M102 459v208h67v-208h-67z" />
    <glyph glyph-name="parenleft" unicode="(" horiz-adv-x="269" 
d="M208 -128q-31 48 -59.5 98.5t-50 103.5t-34 108.5t-12.5 114.5t13 114.5t34.5 108t49.5 103t59 98.5h55q-26 -50 -51 -101t-44.5 -103.5t-31 -107t-11.5 -112.5t11.5 -113t31 -107.5t44.5 -103.5t51 -101h-55z" />
    <glyph glyph-name="parenright" unicode=")" horiz-adv-x="269" 
d="M218 297q0 -59 -12.5 -114.5t-34 -108.5t-50 -103.5t-59.5 -98.5h-55q26 50 51 101t44.5 103.5t31.5 107.5t12 113q0 57 -12 112t-31.5 107.5t-44.5 103.5t-51 101h55q31 -48 59 -98.5t49.5 -103t34.5 -108t13 -114.5z" />
    <glyph glyph-name="asterisk" unicode="*" horiz-adv-x="401" 
d="M241 495l72 -110l-54 -32l-58 112l-58 -112l-54 32l73 110l-116 37l20 61l111 -51l-8 125h65l-9 -125l110 51l20 -61z" />
    <glyph glyph-name="plus" unicode="+" 
d="M304 215v-215h-66v215h-218v60h218v215h66v-215h219v-60h-219z" />
    <glyph glyph-name="comma" unicode="," horiz-adv-x="271" 
d="M97 -128h-59l58 217h84z" />
    <glyph glyph-name="hyphen" unicode="-" horiz-adv-x="320" 
d="M39 277v66h242v-66h-242z" />
    <glyph glyph-name="hyphen" unicode="&#xad;" horiz-adv-x="320" 
d="M39 277v66h242v-66h-242z" />
    <glyph glyph-name="period" unicode="." horiz-adv-x="271" 
d="M93 0v89h86v-89h-86z" />
    <glyph glyph-name="slash" unicode="/" horiz-adv-x="290" 
d="M50 0h-71l262 667h70z" />
    <glyph glyph-name="zero" unicode="0" 
d="M417 333q0 40 -4 88.5t-19 91t-44 71t-79 28.5t-79 -29t-43.5 -71.5t-18.5 -91t-4 -87.5q0 -40 3.5 -88.5t18 -91t43.5 -71t80 -28.5q50 0 79 29t44 71.5t19 91t4 87.5zM498 333q0 -56 -9.5 -116.5t-34.5 -111t-69 -83.5t-114 -33q-71 0 -115.5 32.5t-69 82.5t-33 111
t-8.5 118q0 56 9.5 116.5t34.5 111t69 83.5t113 33t113.5 -33t69.5 -84t34.5 -111.5t9.5 -115.5z" />
    <glyph glyph-name="one" unicode="1" 
d="M262 0v581l-111 -95l-38 52l158 129h69v-667h-78z" />
    <glyph glyph-name="two" unicode="2" 
d="M51 0v63l149 162q24 26 53 57.5t54.5 67t43 72.5t17.5 75q0 26 -10 47t-27 35.5t-39.5 22.5t-47.5 8q-45 0 -85 -12.5t-77 -32.5l-6 69q40 19 82.5 31t87.5 12q42 0 78.5 -10.5t64.5 -32t44 -55t16 -78.5q0 -44 -19 -87t-47.5 -83t-61.5 -76t-61 -67l-112 -123h315v-65
h-412z" />
    <glyph glyph-name="three" unicode="3" 
d="M467 192q0 -53 -20.5 -91t-55.5 -63t-81 -37t-97 -12q-43 0 -83.5 5.5t-81.5 20.5l6 69q38 -18 79.5 -24t83.5 -6q31 0 61.5 8.5t54 25.5t38 43t14.5 61q0 33 -14 56.5t-37 37.5t-51.5 20.5t-56.5 6.5h-91v63h78q31 0 60.5 7t51.5 23t35.5 41t13.5 61q0 30 -14.5 50
t-36.5 32t-48.5 17t-51.5 5q-38 0 -76.5 -8.5t-73.5 -24.5l-6 68q40 14 81.5 22t84.5 8q39 0 78.5 -9t71 -28.5t51.5 -51t20 -77.5q0 -65 -39.5 -107t-99.5 -57q31 -4 59 -16.5t48.5 -32.5t32.5 -46.5t12 -59.5z" />
    <glyph glyph-name="four" unicode="4" 
d="M345 594l-254 -378h254v378zM422 151v-151h-77v151h-319v73l301 443h95v-451h96v-65h-96z" />
    <glyph glyph-name="five" unicode="5" 
d="M473 211q0 -54 -20 -95.5t-54.5 -69.5t-80 -42.5t-96.5 -14.5q-38 0 -78 5t-75 19l6 73q33 -17 69 -24t73 -7q35 0 66.5 9.5t55.5 28.5t38.5 47.5t14.5 65.5q0 38 -13 64.5t-35.5 43.5t-52.5 25t-65 8q-32 0 -65.5 -6t-75.5 -20l7 346h349v-64h-276l-6 -208q23 8 47 10.5
t48 2.5q45 0 85 -12.5t70 -37.5t47 -62t17 -85z" />
    <glyph glyph-name="six" unicode="6" 
d="M421 204q0 33 -9 60.5t-26 48t-43.5 32t-60.5 11.5q-66 0 -105 -39.5t-39 -105.5q0 -32 8.5 -60.5t26 -50t43 -34.5t60.5 -13q69 0 107 42t38 109zM500 209q0 -51 -16.5 -91.5t-46 -69t-71 -44t-91.5 -15.5q-69 0 -111.5 28.5t-66.5 74.5t-32.5 103t-8.5 113
q0 75 16 142.5t52 118t93.5 80t140.5 29.5q29 0 57 -4.5t56 -12.5l-6 -69q-27 11 -55.5 16t-57.5 5q-62 0 -104 -23.5t-68 -62.5t-37.5 -89t-11.5 -102q23 40 68.5 62t90.5 22q48 0 87 -15t66.5 -42.5t42 -66.5t14.5 -87z" />
    <glyph glyph-name="seven" unicode="7" 
d="M215 0h-88l267 600h-341v67h419v-65z" />
    <glyph glyph-name="eight" unicode="8" 
d="M423 175q0 30 -15 52.5t-38 39.5t-49.5 30t-49.5 24q-27 -10 -53.5 -23t-48.5 -30.5t-35.5 -40t-13.5 -52.5q0 -31 12.5 -54t33.5 -38t48.5 -22.5t56.5 -7.5t56.5 7.5t48.5 22.5t34 38t13 54zM402 513q0 27 -11.5 46t-30 31t-42 18t-47.5 6t-47.5 -6.5t-41.5 -19
t-29.5 -31.5t-11.5 -44q0 -27 12.5 -49t31.5 -39t42 -29.5t45 -22.5q21 9 43.5 22.5t42 31t32 39t12.5 47.5zM504 167q0 -46 -21 -79.5t-54.5 -55.5t-75 -32.5t-82.5 -10.5q-42 0 -83.5 10.5t-74.5 32.5t-53.5 55.5t-20.5 79.5q0 37 12.5 65t33.5 50t49.5 37.5t61.5 27.5
q-27 12 -51.5 28.5t-42.5 38t-29 48t-11 58.5q0 40 20 70t50.5 49t67.5 28.5t71 9.5q37 0 74.5 -9t67.5 -27.5t49 -48.5t19 -72q0 -30 -12.5 -56t-32 -48t-44.5 -39t-50 -30q32 -12 61.5 -27t52 -36.5t35.5 -50t13 -66.5z" />
    <glyph glyph-name="nine" unicode="9" 
d="M404 454q0 31 -8.5 60t-25.5 51t-43 35t-60 13q-69 0 -107 -41.5t-38 -109.5q0 -33 8 -61.5t25 -49.5t42.5 -33t61.5 -12q67 0 106 40.5t39 107.5zM489 397q0 -86 -15 -160.5t-50 -129.5t-93.5 -86.5t-145.5 -31.5q-29 0 -57 5t-57 12l6 69q26 -11 55 -16t58 -5
q63 0 103.5 22t64.5 59t35.5 85.5t16.5 101.5q-26 -41 -68 -60t-89 -19q-48 0 -87 15.5t-66.5 43.5t-42 67t-14.5 87q0 49 17.5 90t47.5 70t71 45t88 16q57 0 99 -22.5t69 -61t40.5 -89t13.5 -107.5z" />
    <glyph glyph-name="colon" unicode=":" horiz-adv-x="271" 
d="M93 0v89h86v-89h-86zM93 409v89h86v-89h-86z" />
    <glyph glyph-name="semicolon" unicode=";" horiz-adv-x="271" 
d="M97 -128h-59l58 217h84zM92 409v89h86v-89h-86z" />
    <glyph glyph-name="semicolon" unicode="&#x37e;" horiz-adv-x="271" 
d="M97 -128h-59l58 217h84zM92 409v89h86v-89h-86z" />
    <glyph glyph-name="less" unicode="&#x3c;" 
d="M20 211v65l503 202v-66l-428 -169l428 -167v-65z" />
    <glyph glyph-name="equal" unicode="=" 
d="M20 119v60h503v-60h-503zM20 309v60h503v-60h-503z" />
    <glyph glyph-name="greater" unicode="&#x3e;" 
d="M19 11v65l428 167l-428 169v66l503 -202v-65z" />
    <glyph glyph-name="question" unicode="?" horiz-adv-x="406" 
d="M123 0v89h87v-89h-87zM368 508q0 -39 -12.5 -68t-30.5 -52.5t-40 -44t-40 -43.5t-30.5 -51t-12.5 -65v-15h-71v13q0 43 11.5 73.5t29 54.5t37.5 44t37.5 41.5t29 47t11.5 61.5q0 52 -34 79t-84 27q-35 0 -69 -7.5t-66 -18.5l-6 68q35 11 69 18t79 7q40 0 75 -10.5t61 -32
t41 -53t15 -73.5z" />
    <glyph glyph-name="at" unicode="@" horiz-adv-x="774" 
d="M467 309q-15 4 -35 4q-37 0 -68.5 -18t-54 -47t-35.5 -64.5t-13 -70.5q0 -27 11.5 -46.5t42.5 -19.5q25 0 45.5 13t36.5 32.5t26.5 43.5t15.5 46zM723 231q0 -50 -14.5 -92.5t-41 -73t-64.5 -48t-85 -17.5q-33 0 -61 15t-31 53q-22 -31 -53.5 -49.5t-70.5 -18.5
q-50 0 -73.5 33t-23.5 79q0 49 18.5 94t51 79t76 54.5t93.5 20.5q22 0 44 -4t42 -10l-53 -247q-1 -5 -1 -15q0 -23 18 -30.5t37 -7.5q36 0 61 17.5t40 44.5t21.5 59.5t6.5 63.5q0 55 -20.5 96.5t-55 69.5t-80.5 42t-97 14q-61 0 -114.5 -23t-93 -63t-62.5 -93.5t-23 -114.5
q0 -64 20 -113.5t56.5 -83t87.5 -51t113 -17.5q54 0 105.5 11.5t101.5 29.5l6 -58q-57 -19 -110.5 -28.5t-114.5 -9.5q-71 0 -131.5 23t-104 65t-68 101t-24.5 131q0 76 29.5 140.5t79.5 110.5t117 72t141 26q60 0 115 -19t97 -55t67.5 -87.5t25.5 -115.5z" />
    <glyph glyph-name="A" unicode="A" horiz-adv-x="634" 
d="M316 603l-141 -358h280zM548 0l-69 181h-327l-71 -181h-77l266 667h93l267 -667h-82z" />
    <glyph glyph-name="B" unicode="B" horiz-adv-x="549" 
d="M413 187q0 42 -17 67.5t-44.5 39.5t-61.5 18.5t-67 4.5h-60v-255h71q31 0 63 5t58 19t42 38t16 63zM395 497q0 31 -12 52t-32 33.5t-45 17.5t-52 5h-91v-229h75q30 0 58.5 5.5t50.5 19.5t35 37.5t13 58.5zM495 190q0 -57 -22.5 -94t-59 -58.5t-83 -29.5t-94.5 -8h-151
v667h177q41 0 79.5 -8t68.5 -27t48 -51t18 -79q0 -62 -34.5 -100.5t-93.5 -52.5q31 -5 58 -18t47 -33.5t31 -47.5t11 -60z" />
    <glyph glyph-name="C" unicode="C" horiz-adv-x="589" 
d="M553 19q-33 -17 -77.5 -23.5t-81.5 -6.5q-79 0 -142.5 24.5t-108 69.5t-68.5 108.5t-24 141.5q0 75 25 138t70.5 108.5t108.5 71.5t139 26q36 0 80 -6t77 -20l-6 -71q-32 15 -72 22t-75 7q-62 0 -111 -21t-83 -58t-52 -87.5t-18 -109.5q0 -61 17.5 -112t51 -87.5
t82.5 -56.5t112 -20q38 0 76.5 6t73.5 23z" />
    <glyph glyph-name="D" unicode="D" horiz-adv-x="651" 
d="M517 333q0 126 -67 197.5t-194 71.5h-92v-537h56q70 0 125 14.5t93.5 46.5t58.5 83t20 124zM600 333q0 -89 -28 -152t-78 -103.5t-119.5 -59t-152.5 -18.5h-137v667h174q80 0 143.5 -21.5t107.5 -64t67 -105t23 -143.5z" />
    <glyph glyph-name="E" unicode="E" horiz-adv-x="486" 
d="M85 0v667h344v-65h-265v-228h252v-63h-252v-246h276v-65h-355z" />
    <glyph glyph-name="F" unicode="F" horiz-adv-x="456" 
d="M164 602v-230h245v-63h-245v-309h-79v667h335v-65h-256z" />
    <glyph glyph-name="G" unicode="G" horiz-adv-x="669" 
d="M606 31q-51 -22 -104 -32t-108 -10q-79 0 -142.5 24.5t-108 69.5t-68.5 108.5t-24 141.5q0 76 25 139t70.5 108.5t108.5 71t139 25.5q43 0 93 -8t89 -25l-6 -70q-39 22 -83 29t-88 7q-62 0 -111.5 -20.5t-83.5 -57.5t-52 -88t-18 -111q0 -61 17 -112t50 -87.5t82 -57
t112 -20.5q35 0 69 5t66 18v217h-144v63h220v-328z" />
    <glyph glyph-name="H" unicode="H" horiz-adv-x="653" 
d="M489 0v309h-325v-309h-79v667h79v-289h325v289h80v-667h-80z" />
    <glyph glyph-name="I" unicode="I" horiz-adv-x="248" 
d="M85 0v667h79v-667h-79z" />
    <glyph glyph-name="J" unicode="J" horiz-adv-x="319" 
d="M243 175q0 -40 -9.5 -74t-29 -59t-50 -39t-73.5 -14q-20 0 -39.5 3t-37.5 10l6 65q14 -6 28 -7.5t29 -1.5q27 0 46 10t30 26.5t16 38t5 44.5v490h79v-492z" />
    <glyph glyph-name="K" unicode="K" horiz-adv-x="586" 
d="M476 0l-312 333v-333h-79v667h79v-301l292 301h98l-315 -313l343 -354h-106z" />
    <glyph glyph-name="L" unicode="L" horiz-adv-x="452" 
d="M85 0v667h79v-599h270v-68h-349z" />
    <glyph glyph-name="M" unicode="M" horiz-adv-x="869" 
d="M708 0v602l-236 -602h-77l-236 602v-602h-74v667h122l229 -579l227 579h122v-667h-77z" />
    <glyph glyph-name="N" unicode="N" horiz-adv-x="676" 
d="M480 0l-321 585v-585h-74v667h111l321 -585v585h74v-667h-111z" />
    <glyph glyph-name="O" unicode="O" horiz-adv-x="701" 
d="M567 333q0 51 -12 100.5t-37.5 89t-67 64t-99.5 24.5q-57 0 -98.5 -24.5t-67.5 -64.5t-38.5 -89.5t-12.5 -99.5t12.5 -99.5t39 -89.5t67.5 -64.5t98 -24.5q58 0 99.5 24.5t67 64t37.5 89t12 100.5zM651 333q0 -69 -18.5 -131.5t-56 -110t-94 -75t-131.5 -27.5
q-77 0 -133.5 27t-93.5 73.5t-55 109.5t-18 134q0 69 18.5 131.5t56 109.5t94 75t131.5 28q77 0 133.5 -27t93.5 -74t55 -109.5t18 -133.5z" />
    <glyph glyph-name="P" unicode="P" horiz-adv-x="508" 
d="M398 475q0 63 -38 95.5t-99 32.5h-98v-258h51q36 0 69 4t58.5 17.5t41 39t15.5 69.5zM480 476q0 -51 -18.5 -87.5t-49 -60.5t-70 -35.5t-81.5 -11.5h-97v-281h-79v667h182q45 0 84 -12t67.5 -36t45 -60t16.5 -83z" />
    <glyph glyph-name="Q" unicode="Q" horiz-adv-x="701" 
d="M567 333q0 51 -12 100.5t-37.5 89t-67 64t-99.5 24.5q-57 0 -98.5 -24.5t-67.5 -64.5t-38.5 -89.5t-12.5 -99.5t12.5 -99.5t39 -89.5t67.5 -64.5t98 -24.5q58 0 99.5 24.5t67 64t37.5 89t12 100.5zM651 333q0 -53 -10.5 -102t-32 -90.5t-53.5 -74t-75 -51.5l141 -143
h-103l-118 121q-12 -2 -24 -3t-25 -1q-77 0 -133.5 27t-93.5 73.5t-55 109.5t-18 134q0 69 18.5 131.5t56 109.5t94 75t131.5 28q77 0 133.5 -27t93.5 -74t55 -109.5t18 -133.5z" />
    <glyph glyph-name="R" unicode="R" horiz-adv-x="548" 
d="M394 491q0 34 -12.5 56t-34 34.5t-50 17t-60.5 4.5h-74v-231h70q29 0 57.5 6t51.5 20t37.5 36.5t14.5 56.5zM436 0l-92 220q-11 26 -21 43t-23.5 27t-32.5 14t-49 4h-54v-308h-79v667h184q41 0 78.5 -10t66 -31t45.5 -54t17 -79q0 -32 -12.5 -58.5t-33 -46.5t-48 -33
t-57.5 -17q37 -8 57 -30t34 -55l109 -253h-89z" />
    <glyph glyph-name="S" unicode="S" horiz-adv-x="484" 
d="M439 180q0 -47 -18.5 -82.5t-49.5 -59.5t-72 -36.5t-87 -12.5q-41 0 -81.5 6t-78.5 22l5 77q35 -22 73.5 -30.5t80.5 -8.5q30 0 57 7t46.5 22t31 38.5t11.5 56.5q0 22 -10 40t-26.5 33t-38 28t-44.5 25l-69 37q-24 13 -46.5 28.5t-39 34.5t-26.5 43t-10 54q0 45 19.5 78
t51 54.5t71 32t80.5 10.5q35 0 69 -5t66 -16l-6 -71q-28 14 -62.5 20t-65.5 6q-26 0 -51.5 -5.5t-45.5 -17.5t-32.5 -32.5t-12.5 -50.5q0 -20 8 -35.5t22 -28.5t32 -24.5t38 -21.5l69 -37q28 -15 53.5 -31.5t45 -37.5t31.5 -47.5t12 -61.5z" />
    <glyph glyph-name="T" unicode="T" horiz-adv-x="496" 
d="M288 599v-599h-80v599h-198v68h477v-68h-199z" />
    <glyph glyph-name="U" unicode="U" horiz-adv-x="650" 
d="M574 236q0 -57 -17.5 -102.5t-50 -78t-78.5 -49.5t-103 -17t-103 17t-78.5 48.5t-49.5 77.5t-17 103v432h79v-431q0 -40 11 -73t32 -56.5t52.5 -36.5t73.5 -13t73.5 13t53 36.5t32.5 56.5t11 73v431h79v-431z" />
    <glyph glyph-name="V" unicode="V" horiz-adv-x="598" 
d="M342 0h-87l-249 667h84l210 -591l213 591h79z" />
    <glyph glyph-name="W" unicode="W" horiz-adv-x="922" 
d="M722 0h-94l-165 589l-166 -589h-95l-191 667h81l161 -588l166 588h92l165 -588l161 588h75z" />
    <glyph glyph-name="X" unicode="X" horiz-adv-x="602" 
d="M500 0l-198 303l-206 -303h-88l247 350l-223 317h92l182 -268l181 268h86l-221 -317l243 -350h-95z" />
    <glyph glyph-name="Y" unicode="Y" horiz-adv-x="576" 
d="M327 278v-278h-79v278l-246 389h88l200 -325l200 325h85z" />
    <glyph glyph-name="Z" unicode="Z" horiz-adv-x="494" 
d="M26 0v66l348 535h-336v66h422v-66l-345 -535h353v-66h-442z" />
    <glyph glyph-name="bracketleft" unicode="[" horiz-adv-x="270" 
d="M91 -128v849h165v-52h-96v-745h96v-52h-165z" />
    <glyph glyph-name="backslash" unicode="\" horiz-adv-x="290" 
d="M241 0l-262 667h71l261 -667h-70z" />
    <glyph glyph-name="bracketright" unicode="]" horiz-adv-x="270" 
d="M15 -128v52h97v745h-97v52h166v-849h-166z" />
    <glyph glyph-name="asciicircum" unicode="^" horiz-adv-x="600" 
d="M432 249l-133 342l-130 -342h-70l170 418h63l169 -418h-69z" />
    <glyph glyph-name="underscore" unicode="_" horiz-adv-x="500" 
d="M0 -125v50h500v-50h-500z" />
    <glyph glyph-name="grave" unicode="`" horiz-adv-x="218" 
d="M95 585l-97 136h85l71 -136h-59z" />
    <glyph glyph-name="a" unicode="a" horiz-adv-x="493" 
d="M348 250h-14q-33 0 -72.5 -3t-73.5 -14.5t-56.5 -35t-22.5 -64.5q0 -22 8 -38t22 -26.5t32.5 -15.5t38.5 -5q40 0 66.5 14t42.5 37.5t22.5 54.5t6.5 66v30zM355 0l-3 80q-21 -44 -64.5 -67.5t-90.5 -23.5q-33 0 -63 8.5t-52 26t-35 44t-13 62.5q0 48 21.5 81t58.5 53.5
t87.5 29.5t107.5 9h39v24q0 57 -25 90t-87 33q-38 0 -74 -9t-69 -31l-6 65q32 14 74.5 23.5t77.5 9.5q94 0 137.5 -46t43.5 -140v-216q0 -28 1 -54t5 -52h-71z" />
    <glyph glyph-name="b" unicode="b" horiz-adv-x="543" 
d="M422 251q0 34 -5.5 69t-21 63t-42.5 45.5t-69 17.5q-39 0 -66 -18t-43.5 -46.5t-24 -63t-7.5 -67.5t7 -68t23.5 -64.5t43.5 -48.5t67 -19q42 0 68.5 18.5t42 47.5t21.5 64.5t6 69.5zM501 251q0 -48 -11 -95t-35 -84t-63 -60t-94 -23q-52 0 -92 23t-64 71l-2 -83h-67v721
h73v-307q19 44 62.5 69t90.5 25q57 0 95.5 -21.5t62.5 -57.5t34 -82.5t10 -95.5z" />
    <glyph glyph-name="c" unicode="c" horiz-adv-x="443" 
d="M410 8q-32 -11 -64 -15t-65 -4q-57 0 -101.5 20.5t-75 56t-46 83.5t-15.5 102q0 55 17 102.5t48.5 81.5t77 53.5t102.5 19.5q31 0 62 -5.5t60 -15.5l-6 -65q-24 11 -50.5 18t-53.5 7q-45 0 -78.5 -15t-56 -41t-33.5 -62t-11 -78q0 -39 11 -75.5t33 -64.5t54.5 -44.5
t75.5 -16.5q29 0 56.5 6t53.5 17z" />
    <glyph glyph-name="d" unicode="d" horiz-adv-x="543" 
d="M400 250q0 33 -7.5 67.5t-24 63t-43.5 47t-66 18.5q-42 0 -69 -17.5t-42.5 -46t-21 -63.5t-5.5 -69t6 -69.5t22 -64t42.5 -47t68.5 -18.5q40 0 66.5 19t43 48t23.5 64t7 68zM408 0l-6 83q-24 -48 -64 -71t-92 -23q-56 0 -94.5 23t-62.5 60t-35 84t-11 95q0 49 11 95.5
t35.5 82.5t63.5 57.5t95 21.5q47 0 89 -25t61 -69v307h73v-563q0 -41 1.5 -80t3.5 -78h-68z" />
    <glyph glyph-name="e" unicode="e" horiz-adv-x="491" 
d="M378 283q0 29 -6.5 58.5t-20.5 53.5t-37.5 39.5t-57.5 15.5t-59.5 -16.5t-43 -41.5t-26 -54.5t-8.5 -54.5h259zM119 229q0 -36 10 -69t30.5 -58t50.5 -39.5t69 -14.5q16 0 35 2.5t38 7t36.5 11t31.5 14.5l6 -68q-35 -14 -75.5 -20t-78.5 -6q-60 0 -103.5 20t-71.5 55
t-41 83t-13 104q0 48 14.5 94t41.5 82.5t66.5 58.5t89.5 22q53 0 90.5 -20t61 -54.5t34.5 -79.5t11 -95v-30h-333z" />
    <glyph glyph-name="f" unicode="f" horiz-adv-x="316" 
d="M310 661q-11 5 -23.5 7t-24.5 2q-28 0 -43 -13t-21.5 -30t-7 -34.5t-0.5 -27.5v-67h112v-58h-111v-440h-73v440h-97v58h97v64q0 27 4 56.5t17.5 54.5t40 41.5t72.5 16.5q14 0 32.5 -1.5t31.5 -8.5z" />
    <glyph glyph-name="g" unicode="g" horiz-adv-x="543" 
d="M400 250q0 33 -7.5 67.5t-24 63t-43 47t-65.5 18.5q-42 0 -69 -17.5t-42.5 -46t-21.5 -63.5t-6 -69q0 -32 6 -65.5t21.5 -60.5t42 -44.5t68.5 -17.5q40 0 67 17.5t43.5 45t23.5 61t7 64.5zM471 25q0 -58 -13.5 -104.5t-42 -79.5t-72.5 -50.5t-105 -17.5q-39 0 -78 7
t-77 19l6 71q33 -17 69.5 -26.5t74.5 -9.5q45 0 76.5 14.5t51 40t28.5 60t9 75.5v64q-23 -42 -65 -65t-89 -23q-55 0 -93.5 22t-62.5 57.5t-34.5 80.5t-10.5 91q0 49 11 95.5t35.5 82.5t63 57.5t93.5 21.5q53 0 92.5 -23t63.5 -71v84h69v-473z" />
    <glyph glyph-name="h" unicode="h" horiz-adv-x="539" 
d="M394 0v296q0 30 -4 57t-16 47.5t-34 33t-58 12.5q-39 0 -65 -15.5t-41.5 -40t-22.5 -56.5t-7 -65v-269h-73v721h73v-307q48 94 154 94q46 0 77.5 -15t51 -41.5t28.5 -63t9 -79.5v-309h-72z" />
    <glyph glyph-name="i" unicode="i" horiz-adv-x="218" 
d="M73 0v498h73v-498h-73zM73 609v87h73v-87h-73z" />
    <glyph glyph-name="j" unicode="j" horiz-adv-x="224" 
d="M151 -82q0 -30 -5 -56.5t-18 -46t-35.5 -31t-56.5 -11.5q-16 0 -31.5 1t-30.5 5l6 63q16 -6 34 -6q22 0 35 8t20 20.5t8.5 29.5t1.5 35v569h72v-580zM79 609v87h72v-87h-72z" />
    <glyph glyph-name="k" unicode="k" horiz-adv-x="479" 
d="M379 0l-233 260v-260h-73v721h73v-429l211 206h91l-229 -220l256 -278h-96z" />
    <glyph glyph-name="l" unicode="l" horiz-adv-x="218" 
d="M73 0v721h73v-721h-73z" />
    <glyph glyph-name="m" unicode="m" horiz-adv-x="810" 
d="M665 0v326q0 25 -5 47t-16.5 38t-30.5 25.5t-47 9.5q-34 0 -57.5 -15.5t-38.5 -40.5t-21.5 -56.5t-6.5 -64.5v-269h-73v326q0 25 -5 47t-16 38t-30 25.5t-47 9.5q-34 0 -58 -15.5t-39 -40.5t-21.5 -56.5t-6.5 -64.5v-269h-73v381q0 29 -1 58.5t-4 58.5h67l3 -86
q50 96 149 96q31 0 55.5 -9t43 -23.5t30 -33.5t16.5 -38q9 23 24.5 42.5t36 33t43.5 21t47 7.5q38 0 67 -13t48.5 -35.5t29.5 -53.5t10 -67v-339h-73z" />
    <glyph glyph-name="n" unicode="n" horiz-adv-x="539" 
d="M394 0v295q0 30 -4 57t-16 48t-34 33.5t-58 12.5q-39 0 -65 -15.5t-42 -40.5t-22.5 -57t-6.5 -65v-268h-73v381q0 29 -1 58.5t-4 58.5h67l3 -86q53 96 161 96q48 0 80 -15t51.5 -41.5t27.5 -63t8 -79.5v-309h-72z" />
    <glyph glyph-name="o" unicode="o" horiz-adv-x="551" 
d="M431 251q0 37 -8.5 72.5t-27 63t-48 44t-71.5 16.5q-41 0 -70.5 -17t-48.5 -45t-27.5 -63t-8.5 -71t8.5 -72t27.5 -64.5t48.5 -46.5t70.5 -18t70.5 18t48 46.5t27.5 64.5t9 72zM509 251q0 -54 -15 -101.5t-44 -83.5t-72.5 -56.5t-101.5 -20.5t-101.5 20.5t-73 56.5
t-44 83.5t-14.5 101.5t15.5 100.5t45.5 81.5t73.5 55t98.5 20q58 0 102 -19.5t73 -54t43.5 -81.5t14.5 -102z" />
    <glyph glyph-name="p" unicode="p" horiz-adv-x="543" 
d="M422 251q0 34 -5.5 69t-21 63t-42.5 45.5t-69 17.5q-39 0 -66 -18t-43.5 -46.5t-24 -63t-7.5 -67.5t7 -68t23.5 -64.5t43.5 -48.5t67 -19q42 0 68.5 18.5t42 47.5t21.5 64.5t6 69.5zM501 251q0 -48 -11 -95t-35 -84t-63 -60t-94 -23q-49 0 -91 24t-61 68v-297h-73v547
q0 44 -1.5 84.5t-3.5 82.5h69l4 -87q10 22 26.5 40t37.5 30.5t45.5 19.5t48.5 7q57 0 95.5 -21.5t62.5 -57.5t34 -82.5t10 -95.5z" />
    <glyph glyph-name="q" unicode="q" horiz-adv-x="543" 
d="M400 251q0 33 -7.5 67.5t-24 63t-43.5 46.5t-66 18q-42 0 -69 -17.5t-42.5 -45.5t-21 -63t-5.5 -69t6 -69.5t22 -64.5t42.5 -47.5t68.5 -18.5q40 0 66.5 19t43 48.5t23.5 64.5t7 68zM398 -216v299q-19 -44 -61.5 -69t-90.5 -25q-56 0 -94.5 23t-62.5 60t-35 84t-11 95
q0 49 11 95.5t35 82.5t62.5 57.5t93.5 21.5q53 0 93.5 -23t64.5 -71v84h68v-714h-73z" />
    <glyph glyph-name="r" unicode="r" horiz-adv-x="328" 
d="M309 431q-20 6 -40 6q-38 0 -62 -18.5t-37.5 -47t-18.5 -62t-5 -62.5v-247h-73v381q0 29 -1 58.5t-4 58.5h67l4 -94q7 19 20 37.5t30 33.5t38 24t44 9q11 0 21 -0.5t21 -3.5z" />
    <glyph glyph-name="s" unicode="s" horiz-adv-x="389" 
d="M353 134q0 -36 -15 -63t-39.5 -45.5t-56 -27.5t-64.5 -9q-36 0 -72 5t-70 18l6 68q30 -16 64 -23.5t68 -7.5q42 0 73 20.5t31 62.5q0 30 -18 49t-44.5 33t-58 26t-58 28.5t-44.5 41t-18 62.5q0 36 15 61.5t39.5 42t55 24.5t61.5 8t63 -5.5t61 -16.5l-6 -61
q-24 11 -55 17.5t-57 6.5q-18 0 -36 -3.5t-33 -12t-24 -23t-9 -37.5t18 -38.5t44.5 -28t58 -25.5t58 -31.5t44.5 -46t18 -69.5z" />
    <glyph glyph-name="t" unicode="t" horiz-adv-x="328" 
d="M307 4q-19 -8 -40 -11.5t-41 -3.5q-38 0 -61 13t-35 35.5t-15.5 52.5t-3.5 64v287h-94v57h94v112l72 25v-137h113v-57h-113v-306q0 -33 12.5 -58t51.5 -25q15 0 28.5 3.5t27.5 9.5z" />
    <glyph glyph-name="u" unicode="u" horiz-adv-x="535" 
d="M400 0l-2 86q-26 -48 -66 -72.5t-95 -24.5q-48 0 -79.5 15t-51 42t-27.5 64t-8 80v308h73v-295q0 -30 4 -57t15.5 -48t33 -33.5t57.5 -12.5q39 0 65 15.5t42 40.5t22.5 57t6.5 65v268h72v-381q0 -29 1 -58.5t4 -58.5h-67z" />
    <glyph glyph-name="v" unicode="v" horiz-adv-x="443" 
d="M264 0h-86l-167 498h79l133 -434l134 434h76z" />
    <glyph glyph-name="w" unicode="w" horiz-adv-x="771" 
d="M604 0h-89l-127 429l-129 -429h-88l-158 498h78l127 -430l129 430h87l129 -430l126 430h70z" />
    <glyph glyph-name="x" unicode="x" horiz-adv-x="452" 
d="M354 0l-126 215l-134 -215h-81l172 261l-155 237h85l116 -191l113 191h81l-153 -237l168 -261h-86z" />
    <glyph glyph-name="y" unicode="y" horiz-adv-x="444" 
d="M234 -87q-10 -29 -23 -54.5t-30 -44.5t-39.5 -30t-50.5 -11q-19 0 -31 2t-29 6l6 63q11 -4 22 -6.5t23 -2.5q21 0 36.5 13t26.5 31.5t18.5 38t11.5 32.5l10 33l-173 515h79l134 -429l133 429h76z" />
    <glyph glyph-name="z" unicode="z" horiz-adv-x="424" 
d="M30 0v59l281 381h-270v58h352v-59l-281 -381h283v-58h-365z" />
    <glyph glyph-name="braceleft" unicode="{" horiz-adv-x="272" 
d="M204 -128q-25 0 -43.5 10t-30.5 26.5t-18 38t-6 43.5v160q0 18 -3 39.5t-11.5 39.5t-23 30.5t-37.5 12.5v50q23 0 37.5 12.5t23 31.5t11.5 40.5t3 39.5v158q0 22 6 43.5t18.5 37.5t31 26t43.5 10h59v-50h-46q-14 0 -23 -9.5t-13.5 -23t-6 -28t-1.5 -25.5v-155
q0 -20 -5.5 -41t-16 -39.5t-26 -32.5t-36.5 -20q21 -6 36.5 -20t26 -33t16 -40t5.5 -41v-153q0 -11 1.5 -26t6 -29t13.5 -23.5t23 -9.5h46v-50h-60z" />
    <glyph glyph-name="bar" unicode="|" horiz-adv-x="216" 
d="M72 -216v991h73v-991h-73z" />
    <glyph glyph-name="braceright" unicode="}" horiz-adv-x="272" 
d="M241 272q-23 0 -37.5 -12.5t-22.5 -30.5t-11 -39.5t-3 -39.5v-160q0 -22 -6 -43.5t-18.5 -38t-31 -26.5t-43.5 -10h-60v50h46q14 0 23 9.5t13.5 23.5t6 29t1.5 26v153q0 20 5 41t15.5 40t26.5 33t37 20q-21 6 -37 20t-26.5 32.5t-15.5 39.5t-5 41v155q0 11 -1.5 25.5
t-6 28t-13.5 23t-23 9.5h-46v50h59q25 0 43.5 -10t31 -26t19 -37.5t6.5 -43.5v-158q0 -18 3 -39.5t11 -40.5t22.5 -31.5t37.5 -12.5v-50z" />
    <glyph glyph-name="asciitilde" unicode="~" 
d="M534 317q-2 -26 -10 -50.5t-23 -44t-37 -31.5t-51 -12q-35 0 -72 11t-73 24.5t-71 25t-65 11.5q-35 0 -54.5 -23.5t-24.5 -55.5h-45q4 27 12 52t23 44.5t36.5 31.5t52.5 12q34 0 71 -11.5t73.5 -25.5t71.5 -25.5t64 -11.5q35 0 53.5 24t25.5 55h43v0z" />
    <glyph glyph-name="quotesinglbase" unicode="&#x201a;" horiz-adv-x="271" 
d="M97 -128h-59l58 217h84z" />
    <glyph glyph-name="florin" unicode="&#x192;" 
d="M468 607q-12 3 -24 5t-23 2q-23 0 -38 -10t-25 -26.5t-16.5 -36.5t-10.5 -39l-24 -102h109v-57h-121l-76 -364q-7 -32 -17.5 -68t-28.5 -67t-45 -51t-66 -20q-17 0 -34 1t-35 4l6 63q12 -3 23 -3.5t22 -0.5q25 0 42.5 15.5t29.5 38.5t19 48t11 45l74 359h-108v57h120
l25 108q7 33 18 64t28.5 54t44.5 37t66 14q15 0 30.5 -2.5t29.5 -7.5z" />
    <glyph glyph-name="quotedblbase" unicode="&#x201e;" horiz-adv-x="443" 
d="M97 -128h-59l58 217h84zM269 -128h-58l58 217h83z" />
    <glyph glyph-name="ellipsis" unicode="&#x2026;" horiz-adv-x="1000" 
d="M123 0v89h87v-89h-87zM457 0v89h87v-89h-87zM790 0v89h87v-89h-87z" />
    <glyph glyph-name="dagger" unicode="&#x2020;" 
d="M310 428v-556h-77v556h-176v66h176v227h77v-227h176v-66h-176z" />
    <glyph glyph-name="daggerdbl" unicode="&#x2021;" 
d="M310 99v-227h-77v227h-176v66h176v263h-176v66h176v227h77v-227h176v-66h-176v-263h176v-66h-176z" />
    <glyph glyph-name="circumflex" unicode="&#x2c6;" horiz-adv-x="218" 
d="M184 585l-75 96l-75 -96h-65l103 136h74l103 -136h-65z" />
    <glyph glyph-name="perthousand" unicode="&#x2030;" horiz-adv-x="1250" 
d="M308 471q0 23 -2 50t-11 50t-27 38t-49 15q-30 0 -48 -15.5t-27 -38.5t-11.5 -49.5t-2.5 -49.5t2 -49.5t11 -49.5t27 -38.5t49 -15.5t48.5 15.5t26.5 38.5t11.5 49.5t2.5 49.5zM772 195q0 23 -2 50t-11 50t-27 38t-49 15q-30 0 -48 -15.5t-27 -38.5t-11.5 -49.5
t-2.5 -49.5t2 -49.5t11 -49.5t27 -38.5t49 -15.5t48.5 15.5t26.5 38.5t11.5 49.5t2.5 49.5zM1121 195q0 23 -2.5 50t-12 50t-28 38t-49.5 15q-30 0 -47.5 -15.5t-26 -38.5t-10.5 -49.5t-2 -49.5t2 -49.5t10 -49.5t25.5 -38.5t48.5 -15.5t49 15.5t27.5 38.5t12.5 49.5t3 49.5
zM374 471q0 -35 -7 -71.5t-24.5 -66.5t-47.5 -49t-76 -19q-47 0 -77 19t-47 49t-23.5 66.5t-6.5 71.5q0 34 7 70.5t24.5 66.5t47.5 49.5t75 19.5q46 0 76 -19.5t47.5 -49.5t24.5 -66.5t7 -70.5zM270 -24h-60l424 715h60zM837 195q0 -35 -7 -71.5t-24 -66.5t-47 -49t-76 -19
q-47 0 -77 19t-47 49t-23.5 66.5t-6.5 71.5q0 34 7 70.5t24.5 66.5t47.5 49.5t75 19.5q46 0 76 -19.5t47 -49.5t24 -66.5t7 -70.5zM1186 195q0 -35 -7 -71.5t-25 -66.5t-48.5 -49t-76.5 -19q-47 0 -76.5 19t-46 49t-22.5 66.5t-6 71.5q0 34 6.5 70.5t23.5 66.5t46.5 49.5
t74.5 19.5q46 0 76.5 -19.5t48.5 -49.5t25 -66.5t7 -70.5z" />
    <glyph glyph-name="guilsinglleft" unicode="&#x2039;" horiz-adv-x="266" 
d="M161 55l-131 200l131 198h66l-126 -198l126 -200h-66z" />
    <glyph glyph-name="OE" unicode="&#x152;" horiz-adv-x="873" 
d="M476 600q-23 4 -59.5 7.5t-65.5 3.5q-58 0 -99.5 -24.5t-68 -64t-39 -89.5t-12.5 -100t12.5 -100t39.5 -89.5t68.5 -64t98.5 -24.5q29 0 65.5 3t59.5 8v534zM484 0q-26 -4 -60.5 -7.5t-72.5 -3.5q-77 0 -133.5 27t-93.5 73.5t-55 109.5t-18 134q0 69 18.5 131.5t56 109.5
t94 75t131.5 28q18 0 36.5 -1t36.5 -2.5t33.5 -3t26.5 -3.5h333v-65h-262v-228h248v-62h-248v-247h272v-65h-343z" />
    <glyph glyph-name="quoteleft" unicode="&#x2018;" horiz-adv-x="271" 
d="M122 504h-84l83 217h59z" />
    <glyph glyph-name="quoteright" unicode="&#x2019;" horiz-adv-x="271" 
d="M97 504h-59l58 217h84z" />
    <glyph glyph-name="quotedblleft" unicode="&#x201c;" horiz-adv-x="443" 
d="M122 504h-84l83 217h59zM294 504h-83l83 217h58z" />
    <glyph glyph-name="quotedblright" unicode="&#x201d;" horiz-adv-x="443" 
d="M97 504h-59l58 217h84zM269 504h-59l58 217h84z" />
    <glyph glyph-name="bullet" unicode="&#x2022;" 
d="M386 310q0 -24 -9 -44.5t-25 -36t-36.5 -24.5t-44.5 -9t-44.5 9t-36 24.5t-24.5 36t-9 44.5t9 44.5t24.5 36t36 24.5t44.5 9t44.5 -9t36.5 -24.5t25 -36t9 -44.5z" />
    <glyph glyph-name="endash" unicode="&#x2013;" horiz-adv-x="500" 
d="M0 282v56h500v-56h-500z" />
    <glyph glyph-name="emdash" unicode="&#x2014;" horiz-adv-x="1000" 
d="M0 282v56h1000v-56h-1000z" />
    <glyph glyph-name="tilde" unicode="&#x2dc;" horiz-adv-x="218" 
d="M255 703q0 -16 -6 -33.5t-17 -32t-27 -24t-35 -9.5t-34 6t-28.5 13.5t-26.5 14t-27 6.5q-18 0 -30.5 -15t-12.5 -30h-48q0 18 6 35.5t17.5 32t28 23.5t37.5 9q18 0 34 -6.5t30.5 -14t27.5 -14t25 -6.5q19 0 29 15.5t10 29.5h47z" />
    <glyph glyph-name="trademark" unicode="&#x2122;" horiz-adv-x="916" 
d="M199 619v-353h-63v353h-131v48h326v-48h-132zM801 266v357l-145 -357h-59l-148 357v-357h-59v401h98l141 -336l137 336h97v-401h-62z" />
    <glyph glyph-name="guilsinglright" unicode="&#x203a;" horiz-adv-x="266" 
d="M106 55h-66l125 199l-125 199h66l131 -199z" />
    <glyph glyph-name="oe" unicode="&#x153;" horiz-adv-x="876" 
d="M429 251q0 37 -8.5 72.5t-27 63t-48 44t-71.5 16.5q-41 0 -70.5 -17t-48 -45t-27 -63t-8.5 -71t8.5 -72t27 -64.5t48 -46.5t70.5 -18t70.5 18t48 46.5t27.5 64.5t9 72zM762 283q0 29 -6.5 59t-20.5 54t-37.5 39.5t-57.5 15.5t-59.5 -16.5t-42.5 -42t-25.5 -55t-8.5 -54.5
h258zM504 229q0 -36 10 -69t30 -58t50 -39.5t69 -14.5q16 0 35 2.5t37.5 7t36.5 11t32 14.5l6 -68q-34 -14 -74 -20t-77 -6q-72 0 -120 29t-74 80q-28 -50 -75.5 -79.5t-116.5 -29.5q-58 0 -101 21t-71.5 57t-43 83.5t-14.5 100.5q0 52 15.5 99t45 82t72 55.5t97.5 20.5
q71 0 119.5 -29t75.5 -80q26 48 67.5 78.5t104.5 30.5q52 0 89.5 -20t61 -54t34.5 -79t11 -94v-32h-332z" />
    <glyph glyph-name="Ydieresis" unicode="&#x178;" horiz-adv-x="576" 
d="M327 278v-278h-79v278l-246 389h88l200 -325l200 325h85zM180 749v86h65v-86h-65zM334 749v86h66v-86h-66z" />
    <glyph glyph-name="nonbreakingspace" unicode="&#xa0;" horiz-adv-x="271" 
 />
    <glyph glyph-name="exclamdown" unicode="&#xa1;" horiz-adv-x="268" 
d="M89 -169l13 499h64l13 -499h-90zM91 409v89h86v-89h-86z" />
    <glyph glyph-name="cent" unicode="&#xa2;" 
d="M433 109q-53 -19 -107 -19v-90h-50v92q-47 6 -82.5 28t-59.5 54.5t-36.5 74t-12.5 87.5t13 86.5t38 72.5t60.5 53t79.5 28v91h50v-89q27 0 53.5 -6t52.5 -15l-6 -64q-24 11 -48 18t-49 7q-41 0 -72.5 -14t-52.5 -38.5t-31.5 -57.5t-10.5 -72q0 -36 10.5 -70t30.5 -59.5
t50.5 -41t69.5 -15.5q26 0 52 6t52 17z" />
    <glyph glyph-name="sterling" unicode="&#xa3;" 
d="M478 590q-22 13 -47.5 17.5t-51.5 4.5q-46 0 -74 -14t-43 -37.5t-19.5 -54t-4.5 -63.5v-51h168v-63h-168v-266h240v-63h-397v63h80v266h-76v63h76v57q0 50 11.5 92t37 72t66 47t99.5 17q26 0 57 -4.5t55 -15.5z" />
    <glyph glyph-name="yen" unicode="&#xa5;" 
d="M334 331h124v-56h-150v-71h150v-56h-150v-148h-78v148h-146v56h146v71h-146v56h119l-174 336h82l161 -323l160 323h82z" />
    <glyph glyph-name="section" unicode="&#xa7;" 
d="M387 273q0 18 -7.5 31t-19.5 23t-26.5 17.5t-28.5 13.5l-83 36q-26 -14 -44.5 -41t-18.5 -57q0 -28 20.5 -47t45.5 -30l108 -48q20 21 37 46t17 56zM458 279q0 -23 -5.5 -40.5t-15.5 -32.5t-23 -28.5t-28 -28.5q32 -21 48.5 -49.5t16.5 -68.5q0 -39 -17.5 -68
t-45.5 -48.5t-63.5 -29t-70.5 -9.5q-43 0 -84 7t-82 21l6 63q37 -17 75.5 -24t78.5 -7q21 0 44 5.5t41.5 17.5t30.5 30t12 43q0 16 -8 29t-20 23t-26.5 17.5t-27.5 13.5l-115 50q-39 17 -65 48.5t-26 77.5q0 21 7.5 39.5t19.5 34.5t27 30.5t30 26.5q-32 17 -50 46t-18 66
t15.5 64t41 44.5t57.5 26t65 8.5q41 0 72.5 -4.5t69.5 -16.5l-6 -64q-25 11 -59.5 18t-61.5 7q-18 0 -39 -4t-39 -13.5t-29.5 -25t-11.5 -37.5q0 -21 7.5 -35t20 -24t29 -17.5t33.5 -15.5l95 -43q21 -10 38.5 -21t30 -25t19 -33t6.5 -44z" />
    <glyph glyph-name="dieresis" unicode="&#xa8;" horiz-adv-x="218" 
d="M-1 609v87h66v-87h-66zM154 609v87h66v-87h-66z" />
    <glyph glyph-name="copyright" unicode="&#xa9;" horiz-adv-x="791" 
d="M526 152q-46 -19 -96 -19t-91 14t-69.5 40.5t-44 63.5t-15.5 83q0 45 16 82t45.5 63.5t70 41t88.5 14.5q23 0 48.5 -4.5t47.5 -12.5l-4 -54q-20 8 -43 13.5t-45 5.5q-77 0 -119.5 -41.5t-42.5 -107.5q0 -67 42 -108t120 -41q24 0 45 6t43 15zM680 334q0 59 -22 111.5
t-60.5 92t-90 62.5t-111.5 23t-111.5 -23t-90 -62.5t-60.5 -92t-22 -111.5t22 -112t60.5 -93t90 -63t111.5 -23t112 23t90 63t60 93t22 112zM740 334q0 -71 -27 -134t-73.5 -110t-109.5 -74t-134 -27t-134 27t-109.5 74t-73.5 110t-27 134t27 133.5t73.5 109t109.5 73.5
t134 27t134 -27t109.5 -73.5t73.5 -109t27 -133.5z" />
    <glyph glyph-name="ordfeminine" unicode="&#xaa;" horiz-adv-x="364" 
d="M232 514q-25 0 -50 -3t-45 -10t-32.5 -18.5t-12.5 -28.5q0 -26 20 -34t43 -8q35 0 59.5 25.5t27.5 63.5l1 13h-11zM246 371l-2 53q-14 -27 -43.5 -43t-59.5 -16q-48 0 -78.5 20t-30.5 65q0 30 15 50.5t39.5 33.5t57 18.5t68.5 5.5h31v10q0 61 -76 61q-25 0 -48.5 -5.5
t-45.5 -18.5l-3 52q22 8 50 14t52 6q60 0 94 -26.5t34 -85.5v-127q0 -19 0.5 -35.5t2.5 -31.5h-57z" />
    <glyph glyph-name="guillemotleft" unicode="&#xab;" horiz-adv-x="438" 
d="M161 55l-131 200l131 198h66l-126 -198l126 -200h-66zM333 55l-131 200l131 198h66l-126 -198l126 -200h-66z" />
    <glyph glyph-name="logicalnot" unicode="&#xac;" horiz-adv-x="600" 
d="M489 119v190h-440v60h503v-250h-63z" />
    <glyph glyph-name="registered" unicode="&#xae;" horiz-adv-x="789" 
d="M465 431q0 18 -8.5 29.5t-22.5 17.5t-32 8t-37 2h-43v-122h44q18 0 35.5 3t32 10t23 19.5t8.5 32.5zM491 145l-54 122q-6 15 -12.5 24.5t-15.5 15.5t-21.5 8.5t-30.5 2.5h-35v-173h-59v391h130q27 0 51.5 -5.5t42.5 -18t29 -32t11 -47.5q0 -19 -8 -35.5t-21.5 -28.5
t-31.5 -20t-37 -11q25 -5 38.5 -18t22.5 -33l64 -142h-63zM679 334q0 59 -22 111.5t-60.5 92t-90 62.5t-111.5 23t-111.5 -23t-90 -62.5t-60.5 -92t-22 -111.5t22 -112t60.5 -92.5t90 -63t111.5 -23.5t111.5 23.5t90 63t60.5 92.5t22 112zM739 334q0 -71 -27 -134
t-73.5 -110t-109.5 -74t-134 -27t-134 27t-109.5 74t-73.5 110t-27 134t27 133.5t73.5 109t109.5 73.5t134 27t134 -27t109.5 -73.5t73.5 -109t27 -133.5z" />
    <glyph glyph-name="macron" unicode="&#xaf;" horiz-adv-x="218" 
d="M-13 628v51h245v-51h-245z" />
    <glyph glyph-name="macron" unicode="&#x2c9;" horiz-adv-x="218" 
d="M-13 628v51h245v-51h-245z" />
    <glyph glyph-name="degree" unicode="&#xb0;" horiz-adv-x="400" 
d="M298 533q0 44 -28 69.5t-70 25.5t-70 -25.5t-28 -69.5q0 -20 8 -37t21.5 -29.5t31.5 -19.5t37 -7t37 7t31.5 19.5t21.5 29.5t8 37zM348 533q0 -32 -12 -58t-32 -44.5t-47 -29t-57 -10.5t-57 10.5t-47 29t-32 44.5t-12 58q0 31 12 57.5t32 46t47 30t57 10.5t57 -10.5
t47 -30t32 -46t12 -57.5z" />
    <glyph glyph-name="plusminus" unicode="&#xb1;" horiz-adv-x="600" 
d="M49 -13v60h503v-60h-503zM333 266v-174h-65v174h-219v60h219v175h65v-175h219v-60h-219z" />
    <glyph glyph-name="acute" unicode="&#xb4;" horiz-adv-x="218" 
d="M123 585h-61l72 136h85z" />
    <glyph glyph-name="mu" unicode="&#xb5;" 
d="M402 0l-4 86q-26 -46 -63.5 -71t-89.5 -25q-31 0 -57 11t-43 28v-245h-73v714h73v-296q0 -30 4 -57t15.5 -48t33 -33.5t57.5 -12.5q39 0 65 15.5t42 40.5t22.5 57t6.5 65v269h72v-381q0 -30 1 -59t4 -58h-66z" />
    <glyph glyph-name="mu" unicode="&#x3bc;" 
d="M402 0l-4 86q-26 -46 -63.5 -71t-89.5 -25q-31 0 -57 11t-43 28v-245h-73v714h73v-296q0 -30 4 -57t15.5 -48t33 -33.5t57.5 -12.5q39 0 65 15.5t42 40.5t22.5 57t6.5 65v269h72v-381q0 -30 1 -59t4 -58h-66z" />
    <glyph glyph-name="paragraph" unicode="&#xb6;" horiz-adv-x="541" 
d="M432 -108v729h-126v-729h-65v430q-39 0 -75 11.5t-64 33.5t-45 54.5t-17 73.5q0 50 17.5 84.5t47.5 56t70 31t85 9.5h238v-784h-66z" />
    <glyph glyph-name="periodcentered" unicode="&#xb7;" horiz-adv-x="271" 
d="M93 266v88h86v-88h-86z" />
    <glyph glyph-name="periodcentered" unicode="&#x2219;" horiz-adv-x="271" 
d="M93 266v88h86v-88h-86z" />
    <glyph glyph-name="cedilla" unicode="&#xb8;" horiz-adv-x="218" 
d="M207 -109q0 -18 -8.5 -31.5t-22.5 -22t-32.5 -13t-37.5 -4.5t-43 4t-50 15l14 30q19 -8 35 -12t35 -4q20 0 36 9.5t16 25.5q0 17 -11 25t-25 8q-11 0 -21.5 -1.5t-22.5 -6.5l-11 17l49 70h37l-40 -53q11 4 39 4q24 0 44 -16t20 -44z" />
    <glyph glyph-name="ordmasculine" unicode="&#xba;" horiz-adv-x="367" 
d="M276 523q0 19 -4.5 37.5t-15.5 33.5t-28.5 24t-43.5 9q-25 0 -43 -9t-29 -24t-16.5 -33.5t-5.5 -37.5t5.5 -38.5t16.5 -35t29 -25t43 -9.5t42.5 9.5t28.5 25t16 34.5t5 39zM340 523q0 -34 -10 -63t-29.5 -50t-49 -33t-67.5 -12q-39 0 -68 12t-49 33t-30 50t-10 63
q0 67 41 110.5t116 43.5q77 0 116.5 -42.5t39.5 -111.5z" />
    <glyph glyph-name="guillemotright" unicode="&#xbb;" horiz-adv-x="438" 
d="M105 55h-65l125 199l-125 199h65l132 -199zM277 55h-65l125 199l-125 199h65l132 -199z" />
    <glyph glyph-name="questiondown" unicode="&#xbf;" horiz-adv-x="406" 
d="M378 -154q-35 -11 -69 -18t-79 -7q-40 0 -75 10.5t-61 32t-41 53t-15 73.5q0 39 12.5 68t31 52.5t40 44.5t40 44t31 51t12.5 65v15h70v-13q0 -43 -11.5 -73.5t-29 -54.5t-37.5 -44t-37.5 -41.5t-29 -47.5t-11.5 -62q0 -52 34 -79t84 -27q35 0 69 7.5t66 18.5zM197 409v89
h86v-89h-86z" />
    <glyph glyph-name="Agrave" unicode="&#xc0;" horiz-adv-x="635" 
d="M316 603l-141 -358h280zM548 0l-69 181h-327l-71 -181h-77l266 667h93l267 -667h-82zM300 724l-98 136h86l71 -136h-59z" />
    <glyph glyph-name="Aacute" unicode="&#xc1;" horiz-adv-x="634" 
d="M316 603l-141 -358h280zM548 0l-69 181h-327l-71 -181h-77l266 667h93l267 -667h-82zM336 724h-60l72 136h85z" />
    <glyph glyph-name="Acircumflex" unicode="&#xc2;" horiz-adv-x="634" 
d="M316 603l-141 -358h280zM548 0l-69 181h-327l-71 -181h-77l266 667h93l267 -667h-82zM391 724l-75 96l-75 -96h-65l103 136h74l103 -136h-65z" />
    <glyph glyph-name="Atilde" unicode="&#xc3;" horiz-adv-x="634" 
d="M316 603l-141 -358h280zM548 0l-69 181h-327l-71 -181h-77l266 667h93l267 -667h-82zM463 841q0 -16 -6.5 -33.5t-17.5 -32t-27.5 -24t-35.5 -9.5t-34 6t-28.5 13.5t-26 14t-26.5 6.5q-18 0 -30.5 -14.5t-12.5 -29.5h-48q0 18 6 35.5t17.5 31.5t28 23t37.5 9
q18 0 34 -6.5t30.5 -14t27.5 -13.5t25 -6q19 0 29 14.5t10 29.5h48z" />
    <glyph glyph-name="Adieresis" unicode="&#xc4;" horiz-adv-x="634" 
d="M316 603l-141 -358h280zM548 0l-69 181h-327l-71 -181h-77l266 667h93l267 -667h-82zM207 749v86h66v-86h-66zM362 749v86h65v-86h-65z" />
    <glyph glyph-name="Aring" unicode="&#xc5;" horiz-adv-x="634" 
d="M316 603l-141 -358h280zM375 793q0 24 -17 41t-42 17t-42.5 -17t-17.5 -41q0 -25 18 -42t42 -17q25 0 42 17t17 42zM548 0l-69 181h-327l-71 -181h-77l266 667h93l267 -667h-82zM411 793q0 -20 -7.5 -36.5t-20.5 -29.5t-30.5 -20t-36.5 -7q-20 0 -37 7t-30.5 20t-21 29.5
t-7.5 36.5q0 19 7.5 36t21 30t30.5 20t37 7q19 0 36.5 -7t30.5 -20t20.5 -30t7.5 -36z" />
    <glyph glyph-name="AE" unicode="&#xc6;" horiz-adv-x="854" 
d="M457 612l-227 -367h227v367zM457 0v181h-264l-111 -181h-86l418 667h382v-65h-261v-229h247v-62h-247v-246h273v-65h-351z" />
    <glyph glyph-name="Ccedilla" unicode="&#xc7;" horiz-adv-x="589" 
d="M553 19q-32 -16 -75 -23t-79 -7l-31 -42q11 4 39 4q24 0 44 -16t20 -44q0 -18 -8.5 -31.5t-22.5 -22t-32.5 -13t-37.5 -4.5t-43 4t-50 15l14 30q19 -8 35 -12t35 -4q20 0 35.5 9.5t15.5 25.5q0 17 -10 25t-24 8q-11 0 -22 -1.5t-23 -6.5l-11 17l41 60q-72 5 -130 31.5
t-98.5 71t-62 105.5t-21.5 135q0 75 25 138t70.5 108.5t108.5 71.5t139 26q36 0 80 -6t77 -20l-6 -71q-32 15 -72 22t-75 7q-62 0 -111 -21t-83 -58t-52 -87.5t-18 -109.5q0 -61 17.5 -111.5t51 -87t82.5 -57t112 -20.5q38 0 76.5 6.5t73.5 23.5z" />
    <glyph glyph-name="Egrave" unicode="&#xc8;" horiz-adv-x="486" 
d="M85 0v667h344v-65h-265v-229h251v-62h-251v-246h276v-65h-355zM246 724l-97 136h85l72 -136h-60z" />
    <glyph glyph-name="Eacute" unicode="&#xc9;" horiz-adv-x="486" 
d="M85 0v667h344v-65h-265v-229h251v-62h-251v-246h276v-65h-355zM268 724h-60l72 136h85z" />
    <glyph glyph-name="Ecircumflex" unicode="&#xca;" horiz-adv-x="486" 
d="M85 0v667h344v-65h-265v-229h251v-62h-251v-246h276v-65h-355zM329 724l-74 96l-75 -96h-65l103 136h74l103 -136h-66z" />
    <glyph glyph-name="Edieresis" unicode="&#xcb;" horiz-adv-x="486" 
d="M85 0v667h344v-65h-265v-229h251v-62h-251v-246h276v-65h-355zM148 749v86h66v-86h-66zM303 749v86h66v-86h-66z" />
    <glyph glyph-name="Igrave" unicode="&#xcc;" horiz-adv-x="248" 
d="M86 0v667h79v-667h-79zM109 724l-97 136h85l71 -136h-59z" />
    <glyph glyph-name="Iacute" unicode="&#xcd;" horiz-adv-x="248" 
d="M85 0v667h79v-667h-79zM141 724h-61l72 136h85z" />
    <glyph glyph-name="Icircumflex" unicode="&#xce;" horiz-adv-x="248" 
d="M85 0v667h79v-667h-79zM199 724l-75 96l-75 -96h-65l103 136h74l103 -136h-65z" />
    <glyph glyph-name="Idieresis" unicode="&#xcf;" horiz-adv-x="248" 
d="M85 0v667h79v-667h-79zM14 749v86h66v-86h-66zM169 749v86h66v-86h-66z" />
    <glyph glyph-name="Ntilde" unicode="&#xd1;" horiz-adv-x="675" 
d="M480 0l-321 585v-585h-74v667h111l321 -585v585h74v-667h-111zM493 841q0 -16 -6 -33.5t-17.5 -32t-27.5 -24t-35 -9.5t-34 6t-28.5 13.5t-26.5 14t-27 6.5q-18 0 -30.5 -14.5t-12.5 -29.5h-47q0 18 6 35.5t17.5 31.5t28 23t37.5 9q18 0 34 -6.5t30.5 -14t27.5 -13.5
t25 -6q19 0 29 14.5t10 29.5h47z" />
    <glyph glyph-name="Ograve" unicode="&#xd2;" horiz-adv-x="701" 
d="M567 333q0 51 -12 100.5t-37.5 89t-67 64t-99.5 24.5q-57 0 -98.5 -24.5t-67.5 -64.5t-38.5 -89.5t-12.5 -99.5t12.5 -99.5t39 -89.5t67.5 -64.5t98 -24.5q58 0 99.5 24.5t67 64t37.5 89t12 100.5zM651 333q0 -69 -18.5 -131.5t-56 -110t-94 -75t-131.5 -27.5
q-77 0 -133.5 27t-93.5 73.5t-55 109.5t-18 134q0 69 18.5 131.5t56 109.5t94 75t131.5 28q77 0 133.5 -27t93.5 -74t55 -109.5t18 -133.5zM328 724l-97 136h85l71 -136h-59z" />
    <glyph glyph-name="Oacute" unicode="&#xd3;" horiz-adv-x="701" 
d="M567 333q0 51 -12 100.5t-37.5 89t-67 64t-99.5 24.5q-57 0 -98.5 -24.5t-67.5 -64.5t-38.5 -89.5t-12.5 -99.5t12.5 -99.5t39 -89.5t67.5 -64.5t98 -24.5q58 0 99.5 24.5t67 64t37.5 89t12 100.5zM651 333q0 -69 -18.5 -131.5t-56 -110t-94 -75t-131.5 -27.5
q-77 0 -133.5 27t-93.5 73.5t-55 109.5t-18 134q0 69 18.5 131.5t56 109.5t94 75t131.5 28q77 0 133.5 -27t93.5 -74t55 -109.5t18 -133.5zM373 724h-59l71 136h86z" />
    <glyph glyph-name="Ocircumflex" unicode="&#xd4;" horiz-adv-x="701" 
d="M567 333q0 51 -12 100.5t-37.5 89t-67 64t-99.5 24.5q-57 0 -98.5 -24.5t-67.5 -64.5t-38.5 -89.5t-12.5 -99.5t12.5 -99.5t39 -89.5t67.5 -64.5t98 -24.5q58 0 99.5 24.5t67 64t37.5 89t12 100.5zM651 333q0 -69 -18.5 -131.5t-56 -110t-94 -75t-131.5 -27.5
q-77 0 -133.5 27t-93.5 73.5t-55 109.5t-18 134q0 69 18.5 131.5t56 109.5t94 75t131.5 28q77 0 133.5 -27t93.5 -74t55 -109.5t18 -133.5zM426 724l-75 96l-74 -96h-66l103 136h74l103 -136h-65z" />
    <glyph glyph-name="Otilde" unicode="&#xd5;" horiz-adv-x="701" 
d="M567 333q0 51 -12 100.5t-37.5 89t-67 64t-99.5 24.5q-57 0 -98.5 -24.5t-67.5 -64.5t-38.5 -89.5t-12.5 -99.5t12.5 -99.5t39 -89.5t67.5 -64.5t98 -24.5q58 0 99.5 24.5t67 64t37.5 89t12 100.5zM651 333q0 -69 -18.5 -131.5t-56 -110t-94 -75t-131.5 -27.5
q-77 0 -133.5 27t-93.5 73.5t-55 109.5t-18 134q0 69 18.5 131.5t56 109.5t94 75t131.5 28q77 0 133.5 -27t93.5 -74t55 -109.5t18 -133.5zM497 841q0 -16 -6 -33.5t-17.5 -32t-27.5 -24t-35 -9.5t-34.5 6t-29 13.5t-26.5 14t-27 6.5q-18 0 -30 -14.5t-12 -29.5h-47
q0 18 6 35.5t17.5 31.5t28 23t37.5 9q18 0 34 -6.5t30.5 -14t27.5 -13.5t25 -6q19 0 29 14.5t10 29.5h47z" />
    <glyph glyph-name="Odieresis" unicode="&#xd6;" horiz-adv-x="701" 
d="M567 333q0 51 -12 100.5t-37.5 89t-67 64t-99.5 24.5q-57 0 -98.5 -24.5t-67.5 -64.5t-38.5 -89.5t-12.5 -99.5t12.5 -99.5t39 -89.5t67.5 -64.5t98 -24.5q58 0 99.5 24.5t67 64t37.5 89t12 100.5zM651 333q0 -69 -18.5 -131.5t-56 -110t-94 -75t-131.5 -27.5
q-77 0 -133.5 27t-93.5 73.5t-55 109.5t-18 134q0 69 18.5 131.5t56 109.5t94 75t131.5 28q77 0 133.5 -27t93.5 -74t55 -109.5t18 -133.5zM240 749v86h66v-86h-66zM395 749v86h66v-86h-66z" />
    <glyph glyph-name="Oslash" unicode="&#xd8;" horiz-adv-x="701" 
d="M569 333q0 45 -9.5 88t-30.5 79l-325 -377q26 -30 63 -49t86 -19q58 0 99.5 24.5t67 64t37.5 89t12 100.5zM501 547q-26 29 -62.5 46.5t-85.5 17.5q-57 0 -98.5 -24.5t-67.5 -64.5t-38.5 -89.5t-12.5 -99.5q0 -43 10 -85.5t30 -78.5zM589 566q33 -46 48.5 -106t15.5 -127
q0 -69 -18.5 -131.5t-56 -110t-94 -75t-131.5 -27.5q-66 0 -116.5 19.5t-86.5 54.5l-76 -88l-39 35l80 93q-32 46 -47 105t-15 125q0 69 18.5 131.5t56 109.5t94 75t131.5 28q65 0 114.5 -19t85.5 -53l74 86l40 -35z" />
    <glyph glyph-name="Ugrave" unicode="&#xd9;" horiz-adv-x="650" 
d="M574 236q0 -58 -17.5 -103.5t-49.5 -77.5t-78.5 -49t-103.5 -17t-103 17t-78.5 48.5t-49.5 77.5t-17 103v432h79v-431q0 -40 11 -73t32 -56.5t52.5 -36.5t73.5 -13q84 0 127 49.5t43 129.5v431h79v-431zM314 724l-96 136h85l71 -136h-60z" />
    <glyph glyph-name="Uacute" unicode="&#xda;" horiz-adv-x="650" 
d="M574 236q0 -58 -17.5 -103.5t-49.5 -77.5t-78.5 -49t-103.5 -17t-103 17t-78.5 48.5t-49.5 77.5t-17 103v432h79v-431q0 -40 11 -73t32 -56.5t52.5 -36.5t73.5 -13q84 0 127 49.5t43 129.5v431h79v-431zM336 724h-59l71 136h85z" />
    <glyph glyph-name="Ucircumflex" unicode="&#xdb;" horiz-adv-x="650" 
d="M574 236q0 -58 -17.5 -103.5t-49.5 -77.5t-78.5 -49t-103.5 -17t-103 17t-78.5 48.5t-49.5 77.5t-17 103v432h79v-431q0 -40 11 -73t32 -56.5t52.5 -36.5t73.5 -13q84 0 127 49.5t43 129.5v431h79v-431zM399 724l-74 96l-76 -96h-65l104 136h74l102 -136h-65z" />
    <glyph glyph-name="Udieresis" unicode="&#xdc;" horiz-adv-x="650" 
d="M574 236q0 -58 -17.5 -103.5t-49.5 -77.5t-78.5 -49t-103.5 -17t-103 17t-78.5 48.5t-49.5 77.5t-17 103v432h79v-431q0 -40 11 -73t32 -56.5t52.5 -36.5t73.5 -13q84 0 127 49.5t43 129.5v431h79v-431zM215 749v86h66v-86h-66zM370 749v86h66v-86h-66z" />
    <glyph glyph-name="germandbls" unicode="&#xdf;" horiz-adv-x="550" 
d="M518 130q0 -35 -12 -61.5t-33.5 -44t-50 -26.5t-61.5 -9q-34 0 -63.5 5t-61.5 18l6 65q26 -14 52.5 -21.5t56.5 -7.5q40 0 65 20t25 62q0 30 -15 50t-37.5 35.5t-48.5 29t-48.5 31t-37.5 42t-15 60.5t15 61t39 40.5t54 23t61 9.5q0 31 -7 60t-22.5 51t-40.5 35t-62 13
q-35 0 -60 -12.5t-40.5 -33.5t-22.5 -49t-7 -59v-517h-73v517q0 47 13.5 86t39.5 67.5t64 44.5t86 16q51 0 89 -17.5t63 -48.5t37.5 -72.5t12.5 -89.5v-39q-23 0 -51.5 -1.5t-53.5 -10t-41.5 -25.5t-16.5 -49q0 -23 15 -39.5t37.5 -31t49 -29t49 -34.5t37.5 -47.5t15 -66.5z
" />
    <glyph glyph-name="agrave" unicode="&#xe0;" horiz-adv-x="493" 
d="M348 250h-14q-33 0 -72.5 -3t-73.5 -14.5t-56.5 -35t-22.5 -64.5q0 -22 8 -38t22 -26.5t32.5 -15.5t38.5 -5q40 0 66.5 14t42.5 37.5t22.5 54.5t6.5 66v30zM355 0l-3 80q-21 -44 -64.5 -67.5t-90.5 -23.5q-33 0 -63 8.5t-52 26t-35 44t-13 62.5q0 48 21.5 81t58.5 53.5
t87.5 29.5t107.5 9h39v24q0 57 -25 90t-87 33q-38 0 -74 -9t-69 -31l-6 65q32 14 74.5 23.5t77.5 9.5q94 0 137.5 -46t43.5 -140v-216q0 -28 1 -54t5 -52h-71zM225 585l-97 136h85l72 -136h-60z" />
    <glyph glyph-name="aacute" unicode="&#xe1;" horiz-adv-x="493" 
d="M348 250h-14q-33 0 -72.5 -3t-73.5 -14.5t-56.5 -35t-22.5 -64.5q0 -22 8 -38t22 -26.5t32.5 -15.5t38.5 -5q40 0 66.5 14t42.5 37.5t22.5 54.5t6.5 66v30zM355 0l-3 80q-21 -44 -64.5 -67.5t-90.5 -23.5q-33 0 -63 8.5t-52 26t-35 44t-13 62.5q0 48 21.5 81t58.5 53.5
t87.5 29.5t107.5 9h39v24q0 57 -25 90t-87 33q-38 0 -74 -9t-69 -31l-6 65q32 14 74.5 23.5t77.5 9.5q94 0 137.5 -46t43.5 -140v-216q0 -28 1 -54t5 -52h-71zM256 585h-60l72 136h85z" />
    <glyph glyph-name="acircumflex" unicode="&#xe2;" horiz-adv-x="493" 
d="M348 250h-14q-33 0 -72.5 -3t-73.5 -14.5t-56.5 -35t-22.5 -64.5q0 -22 8 -38t22 -26.5t32.5 -15.5t38.5 -5q40 0 66.5 14t42.5 37.5t22.5 54.5t6.5 66v30zM355 0l-3 80q-21 -44 -64.5 -67.5t-90.5 -23.5q-33 0 -63 8.5t-52 26t-35 44t-13 62.5q0 48 21.5 81t58.5 53.5
t87.5 29.5t107.5 9h39v24q0 57 -25 90t-87 33q-38 0 -74 -9t-69 -31l-6 65q32 14 74.5 23.5t77.5 9.5q94 0 137.5 -46t43.5 -140v-216q0 -28 1 -54t5 -52h-71zM319 585l-75 96l-75 -96h-66l103 136h75l103 -136h-65z" />
    <glyph glyph-name="atilde" unicode="&#xe3;" horiz-adv-x="493" 
d="M348 250h-14q-33 0 -72.5 -3t-73.5 -14.5t-56.5 -35t-22.5 -64.5q0 -22 8 -38t22 -26.5t32.5 -15.5t38.5 -5q40 0 66.5 14t42.5 37.5t22.5 54.5t6.5 66v30zM355 0l-3 80q-21 -44 -64.5 -67.5t-90.5 -23.5q-33 0 -63 8.5t-52 26t-35 44t-13 62.5q0 48 21.5 81t58.5 53.5
t87.5 29.5t107.5 9h39v24q0 57 -25 90t-87 33q-38 0 -74 -9t-69 -31l-6 65q32 14 74.5 23.5t77.5 9.5q94 0 137.5 -46t43.5 -140v-216q0 -28 1 -54t5 -52h-71zM394 703q0 -16 -6 -33.5t-17 -32t-27 -24t-35 -9.5t-34.5 6t-29 13.5t-26.5 14t-27 6.5q-18 0 -30.5 -15
t-12.5 -30h-48q0 18 6.5 35.5t17.5 32t28 23.5t38 9q18 0 34 -6.5t30.5 -14t27.5 -14t25 -6.5q19 0 29 15.5t10 29.5h47z" />
    <glyph glyph-name="adieresis" unicode="&#xe4;" horiz-adv-x="493" 
d="M348 250h-14q-33 0 -72.5 -3t-73.5 -14.5t-56.5 -35t-22.5 -64.5q0 -22 8 -38t22 -26.5t32.5 -15.5t38.5 -5q40 0 66.5 14t42.5 37.5t22.5 54.5t6.5 66v30zM355 0l-3 80q-21 -44 -64.5 -67.5t-90.5 -23.5q-33 0 -63 8.5t-52 26t-35 44t-13 62.5q0 48 21.5 81t58.5 53.5
t87.5 29.5t107.5 9h39v24q0 57 -25 90t-87 33q-38 0 -74 -9t-69 -31l-6 65q32 14 74.5 23.5t77.5 9.5q94 0 137.5 -46t43.5 -140v-216q0 -28 1 -54t5 -52h-71zM132 609v87h66v-87h-66zM287 609v87h66v-87h-66z" />
    <glyph glyph-name="aring" unicode="&#xe5;" horiz-adv-x="493" 
d="M348 250h-14q-33 0 -72.5 -3t-73.5 -14.5t-56.5 -35t-22.5 -64.5q0 -22 8 -38t22 -26.5t32.5 -15.5t38.5 -5q40 0 66.5 14t42.5 37.5t22.5 54.5t6.5 66v30zM299 653q0 24 -17 41t-42 17t-42.5 -17t-17.5 -41q0 -25 18 -42t42 -17q25 0 42 17t17 42zM355 0l-3 80
q-21 -44 -64.5 -67.5t-90.5 -23.5q-33 0 -63 8.5t-52 26t-35 44t-13 62.5q0 48 21.5 81t58.5 53.5t87.5 29.5t107.5 9h39v24q0 57 -25 90t-87 33q-38 0 -74 -9t-69 -31l-6 65q32 14 74.5 23.5t77.5 9.5q94 0 137.5 -46t43.5 -140v-216q0 -28 1 -54t5 -52h-71zM335 653
q0 -20 -7.5 -36.5t-20.5 -29.5t-30.5 -20t-36.5 -7q-20 0 -37 7t-30.5 20t-21 29.5t-7.5 36.5q0 19 7.5 36t21 29.5t30.5 19.5t37 7q39 0 67 -26.5t28 -65.5z" />
    <glyph glyph-name="ae" unicode="&#xe6;" horiz-adv-x="790" 
d="M347 233h-16q-45 0 -85 -4t-70.5 -15.5t-48.5 -33t-18 -56.5q0 -20 9 -34t23 -24t32 -14.5t35 -4.5q75 0 107 44t32 113v29zM677 284q0 29 -6.5 58.5t-20.5 53.5t-37.5 39.5t-57.5 15.5t-59.5 -16.5t-43 -41.5t-26 -54.5t-8.5 -54.5h259zM418 230q0 -36 10 -69t30.5 -58
t50.5 -39.5t69 -14.5q33 0 72 9t68 26l6 -68q-34 -14 -74 -20t-77 -6q-64 0 -115.5 23.5t-77.5 78.5q-27 -51 -77 -77t-107 -26q-32 0 -61.5 7.5t-52 23t-35.5 40.5t-13 61q0 50 23 82t61.5 50.5t87.5 25.5t100 7h41v41q0 57 -25 89.5t-86 32.5q-38 0 -74 -8.5t-69 -30.5
l-6 65q32 14 74 23.5t77 9.5q121 0 157 -87q27 41 69 64.5t91 23.5q52 0 89 -20t61 -54t35 -79t11 -94v-32h-333z" />
    <glyph glyph-name="ccedilla" unicode="&#xe7;" horiz-adv-x="443" 
d="M410 8q-27 -10 -54.5 -14t-55.5 -5l-31 -42q11 4 39 4q24 0 44 -16t20 -44q0 -18 -8.5 -31.5t-22.5 -22t-32.5 -13t-37.5 -4.5t-43 4t-50 15l14 30q19 -8 35 -12t35 -4q20 0 36 9.5t16 25.5q0 17 -10.5 25t-24.5 8q-11 0 -22 -1.5t-23 -6.5l-10 17l40 59q-54 3 -95 24.5
t-69 56.5t-42.5 81.5t-14.5 99.5q0 55 17 102.5t48.5 81.5t77 53.5t102.5 19.5q31 0 62 -5.5t60 -15.5l-6 -65q-24 11 -50.5 18t-53.5 7q-45 0 -78.5 -15t-56 -41t-33.5 -62t-11 -78q0 -39 11 -75.5t33 -64.5t54.5 -44.5t75.5 -16.5q29 0 56.5 6t53.5 17z" />
    <glyph glyph-name="egrave" unicode="&#xe8;" horiz-adv-x="492" 
d="M378 283q0 29 -6.5 59t-20.5 54t-37.5 39.5t-57.5 15.5t-59.5 -16.5t-43 -42t-26 -55t-8.5 -54.5h259zM119 229q0 -36 10 -69t30.5 -58t50.5 -39.5t69 -14.5q16 0 35 2.5t38 7t36.5 11t31.5 14.5l6 -68q-35 -14 -75.5 -20t-78.5 -6q-60 0 -103.5 20t-71.5 55t-41 83
t-13 104q0 48 14.5 94t41.5 82.5t66.5 58.5t89.5 22q53 0 90.5 -20t61 -54.5t34.5 -79.5t11 -95v-30h-333zM237 585l-96 136h85l71 -136h-60z" />
    <glyph glyph-name="eacute" unicode="&#xe9;" horiz-adv-x="492" 
d="M378 283q0 29 -6.5 59t-20.5 54t-37.5 39.5t-57.5 15.5t-59.5 -16.5t-43 -42t-26 -55t-8.5 -54.5h259zM119 229q0 -36 10 -69t30.5 -58t50.5 -39.5t69 -14.5q16 0 35 2.5t38 7t36.5 11t31.5 14.5l6 -68q-35 -14 -75.5 -20t-78.5 -6q-60 0 -103.5 20t-71.5 55t-41 83
t-13 104q0 48 14.5 94t41.5 82.5t66.5 58.5t89.5 22q53 0 90.5 -20t61 -54.5t34.5 -79.5t11 -95v-30h-333zM269 585h-59l71 136h85z" />
    <glyph glyph-name="ecircumflex" unicode="&#xea;" horiz-adv-x="492" 
d="M378 283q0 29 -6.5 59t-20.5 54t-37.5 39.5t-57.5 15.5t-59.5 -16.5t-43 -42t-26 -55t-8.5 -54.5h259zM119 229q0 -36 10 -69t30.5 -58t50.5 -39.5t69 -14.5q16 0 35 2.5t38 7t36.5 11t31.5 14.5l6 -68q-35 -14 -75.5 -20t-78.5 -6q-60 0 -103.5 20t-71.5 55t-41 83
t-13 104q0 48 14.5 94t41.5 82.5t66.5 58.5t89.5 22q53 0 90.5 -20t61 -54.5t34.5 -79.5t11 -95v-30h-333zM328 585l-75 96l-75 -96h-65l103 136h74l103 -136h-65z" />
    <glyph glyph-name="edieresis" unicode="&#xeb;" horiz-adv-x="492" 
d="M378 283q0 29 -6.5 59t-20.5 54t-37.5 39.5t-57.5 15.5t-59.5 -16.5t-43 -42t-26 -55t-8.5 -54.5h259zM119 229q0 -36 10 -69t30.5 -58t50.5 -39.5t69 -14.5q16 0 35 2.5t38 7t36.5 11t31.5 14.5l6 -68q-35 -14 -75.5 -20t-78.5 -6q-60 0 -103.5 20t-71.5 55t-41 83
t-13 104q0 48 14.5 94t41.5 82.5t66.5 58.5t89.5 22q53 0 90.5 -20t61 -54.5t34.5 -79.5t11 -95v-30h-333zM143 609v87h66v-87h-66zM298 609v87h66v-87h-66z" />
    <glyph glyph-name="igrave" unicode="&#xec;" horiz-adv-x="218" 
d="M73 0v498h73v-498h-73zM97 585l-97 136h85l71 -136h-59z" />
    <glyph glyph-name="iacute" unicode="&#xed;" horiz-adv-x="218" 
d="M73 0v498h73v-498h-73zM122 585h-61l72 136h85z" />
    <glyph glyph-name="icircumflex" unicode="&#xee;" horiz-adv-x="218" 
d="M73 0v498h73v-498h-73zM184 585l-75 96l-75 -96h-65l103 136h74l103 -136h-65z" />
    <glyph glyph-name="idieresis" unicode="&#xef;" horiz-adv-x="218" 
d="M73 0v498h73v-498h-73zM-1 609v87h66v-87h-66zM154 609v87h66v-87h-66z" />
    <glyph glyph-name="ntilde" unicode="&#xf1;" horiz-adv-x="539" 
d="M394 0v295q0 30 -4 57t-16 48t-34 33.5t-58 12.5q-39 0 -65 -15.5t-42 -40.5t-22.5 -57t-6.5 -65v-268h-73v381q0 30 -1 59t-4 58h67l3 -87q27 48 66 72.5t95 24.5q48 0 80 -15t51.5 -41.5t27.5 -63t8 -79.5v-309h-72zM418 703q0 -16 -6 -33.5t-17.5 -32t-27.5 -24
t-35 -9.5t-34.5 6t-29 13.5t-26.5 14t-27 6.5q-18 0 -30 -15t-12 -30h-48q0 18 6 35.5t17.5 32t28 23.5t37.5 9q18 0 34 -6.5t31 -14l28 -14t25 -6.5q19 0 28.5 15.5t9.5 29.5h48z" />
    <glyph glyph-name="ograve" unicode="&#xf2;" horiz-adv-x="551" 
d="M431 251q0 37 -8.5 72.5t-27 63t-48 44t-71.5 16.5q-41 0 -70.5 -17t-48.5 -45t-27.5 -63t-8.5 -71t8.5 -72t27.5 -64.5t48.5 -46.5t70.5 -18t70.5 18t48 46.5t27.5 64.5t9 72zM509 251q0 -54 -15 -101.5t-44 -83.5t-72.5 -56.5t-101.5 -20.5t-101.5 20.5t-73 56.5
t-44 83.5t-14.5 101.5t15.5 100.5t45.5 81.5t73.5 55t98.5 20q58 0 102 -19.5t73 -54t43.5 -81.5t14.5 -102zM259 585l-97 136h85l72 -136h-60z" />
    <glyph glyph-name="oacute" unicode="&#xf3;" horiz-adv-x="551" 
d="M431 251q0 37 -8.5 72.5t-27 63t-48 44t-71.5 16.5q-41 0 -70.5 -17t-48.5 -45t-27.5 -63t-8.5 -71t8.5 -72t27.5 -64.5t48.5 -46.5t70.5 -18t70.5 18t48 46.5t27.5 64.5t9 72zM509 251q0 -54 -15 -101.5t-44 -83.5t-72.5 -56.5t-101.5 -20.5t-101.5 20.5t-73 56.5
t-44 83.5t-14.5 101.5t15.5 100.5t45.5 81.5t73.5 55t98.5 20q58 0 102 -19.5t73 -54t43.5 -81.5t14.5 -102zM290 585h-59l71 136h86z" />
    <glyph glyph-name="ocircumflex" unicode="&#xf4;" horiz-adv-x="551" 
d="M431 251q0 37 -8.5 72.5t-27 63t-48 44t-71.5 16.5q-41 0 -70.5 -17t-48.5 -45t-27.5 -63t-8.5 -71t8.5 -72t27.5 -64.5t48.5 -46.5t70.5 -18t70.5 18t48 46.5t27.5 64.5t9 72zM509 251q0 -54 -15 -101.5t-44 -83.5t-72.5 -56.5t-101.5 -20.5t-101.5 20.5t-73 56.5
t-44 83.5t-14.5 101.5t15.5 100.5t45.5 81.5t73.5 55t98.5 20q58 0 102 -19.5t73 -54t43.5 -81.5t14.5 -102zM350 585l-75 96l-75 -96h-65l103 136h74l103 -136h-65z" />
    <glyph glyph-name="otilde" unicode="&#xf5;" horiz-adv-x="551" 
d="M431 251q0 37 -8.5 72.5t-27 63t-48 44t-71.5 16.5q-41 0 -70.5 -17t-48.5 -45t-27.5 -63t-8.5 -71t8.5 -72t27.5 -64.5t48.5 -46.5t70.5 -18t70.5 18t48 46.5t27.5 64.5t9 72zM509 251q0 -54 -15 -101.5t-44 -83.5t-72.5 -56.5t-101.5 -20.5t-101.5 20.5t-73 56.5
t-44 83.5t-14.5 101.5t15.5 100.5t45.5 81.5t73.5 55t98.5 20q58 0 102 -19.5t73 -54t43.5 -81.5t14.5 -102zM422 703q0 -16 -6 -33.5t-17.5 -32t-27.5 -24t-35 -9.5t-34 6t-28.5 13.5t-26.5 14t-27 6.5q-18 0 -30.5 -15t-12.5 -30h-48q0 18 6 35.5t17.5 32t28 23.5t37.5 9
q18 0 34 -6.5t31 -14l28 -14t25 -6.5q19 0 28.5 15.5t9.5 29.5h48z" />
    <glyph glyph-name="odieresis" unicode="&#xf6;" horiz-adv-x="551" 
d="M431 251q0 37 -8.5 72.5t-27 63t-48 44t-71.5 16.5q-41 0 -70.5 -17t-48.5 -45t-27.5 -63t-8.5 -71t8.5 -72t27.5 -64.5t48.5 -46.5t70.5 -18t70.5 18t48 46.5t27.5 64.5t9 72zM509 251q0 -54 -15 -101.5t-44 -83.5t-72.5 -56.5t-101.5 -20.5t-101.5 20.5t-73 56.5
t-44 83.5t-14.5 101.5t15.5 100.5t45.5 81.5t73.5 55t98.5 20q58 0 102 -19.5t73 -54t43.5 -81.5t14.5 -102zM165 609v87h66v-87h-66zM320 609v87h65v-87h-65z" />
    <glyph glyph-name="divide" unicode="&#xf7;" 
d="M323 64q0 -22 -15 -37.5t-37 -15.5t-36.5 15.5t-14.5 37.5t15 37t36 15q22 0 37 -15t15 -37zM20 214v60h503v-60h-503zM323 424q0 -22 -15 -37t-37 -15q-21 0 -36 15t-15 37t14.5 37.5t36.5 15.5t37 -15.5t15 -37.5z" />
    <glyph glyph-name="oslash" unicode="&#xf8;" horiz-adv-x="551" 
d="M432 251q0 32 -6 61.5t-20 54.5l-234 -270q18 -21 44 -34t61 -13q41 0 70.5 17.5t48 46t27.5 64.5t9 73zM382 405q-18 20 -44 31t-61 11q-41 0 -70.5 -17t-48.5 -45t-27.5 -63t-8.5 -71q0 -30 7 -60t21 -56zM461 424q25 -34 37 -78t12 -95q0 -54 -15 -101.5t-44 -83.5
t-72.5 -56.5t-101.5 -20.5q-48 0 -86 14.5t-66 39.5l-61 -71l-37 27l67 77q-26 35 -38 79.5t-12 95.5q0 54 15 100.5t44.5 81.5t73 55t100.5 20q48 0 85.5 -13t66.5 -38l59 68l37 -27z" />
    <glyph glyph-name="ugrave" unicode="&#xf9;" horiz-adv-x="535" 
d="M401 0l-4 86q-27 -48 -65.5 -72.5t-94.5 -24.5q-48 0 -79.5 15t-51 42t-27.5 63.5t-8 79.5v309h73v-296q0 -30 4 -57t15.5 -48t33 -33.5t57.5 -12.5q39 0 65 15.5t42 40.5t22.5 57t6.5 65v269h72v-381q0 -30 1 -59t4 -58h-66zM252 585l-96 136h85l71 -136h-60z" />
    <glyph glyph-name="uacute" unicode="&#xfa;" horiz-adv-x="535" 
d="M401 0l-4 86q-27 -48 -65.5 -72.5t-94.5 -24.5q-48 0 -79.5 15t-51 42t-27.5 63.5t-8 79.5v309h73v-296q0 -30 4 -57t15.5 -48t33 -33.5t57.5 -12.5q39 0 65 15.5t42 40.5t22.5 57t6.5 65v269h72v-381q0 -30 1 -59t4 -58h-66zM282 585h-59l71 136h85z" />
    <glyph glyph-name="ucircumflex" unicode="&#xfb;" horiz-adv-x="535" 
d="M401 0l-4 86q-27 -48 -65.5 -72.5t-94.5 -24.5q-48 0 -79.5 15t-51 42t-27.5 63.5t-8 79.5v309h73v-296q0 -30 4 -57t15.5 -48t33 -33.5t57.5 -12.5q39 0 65 15.5t42 40.5t22.5 57t6.5 65v269h72v-381q0 -30 1 -59t4 -58h-66zM343 585l-75 96l-75 -96h-66l103 136h75
l103 -136h-65z" />
    <glyph glyph-name="udieresis" unicode="&#xfc;" horiz-adv-x="535" 
d="M401 0l-4 86q-27 -48 -65.5 -72.5t-94.5 -24.5q-48 0 -79.5 15t-51 42t-27.5 63.5t-8 79.5v309h73v-296q0 -30 4 -57t15.5 -48t33 -33.5t57.5 -12.5q39 0 65 15.5t42 40.5t22.5 57t6.5 65v269h72v-381q0 -30 1 -59t4 -58h-66zM157 609v87h66v-87h-66zM312 609v87h66v-87
h-66z" />
    <glyph glyph-name="ydieresis" unicode="&#xff;" horiz-adv-x="444" 
d="M234 -87q-10 -29 -23 -54.5t-30 -44.5t-39.5 -30t-50.5 -11q-19 0 -31 2t-29 6l6 63q11 -4 22 -6.5t23 -2.5q21 0 36.5 13t26.5 31.5t18.5 38t11.5 32.5l10 33l-173 515h79l134 -429l133 429h76zM116 609v87h66v-87h-66zM271 609v87h65v-87h-65z" />
    <glyph glyph-name="fraction" unicode="&#x2044;" horiz-adv-x="169" 
d="M-98 -24h-59l424 715h59z" />
    <glyph glyph-name="fi" unicode="&#xfb01;" horiz-adv-x="524" 
d="M311 660q-11 5 -23.5 7.5t-24.5 2.5q-28 0 -43 -13t-21.5 -30t-7 -34.5t-0.5 -27.5v-67h111v-58h-111v-440h-73v440h-97v58h97v64q0 26 4 56t18 55t40.5 41.5t72.5 16.5q14 0 32.5 -2t31.5 -8zM378 0v498h73v-498h-73zM378 609v87h73v-87h-73z" />
    <glyph glyph-name="fl" unicode="&#xfb02;" horiz-adv-x="524" 
d="M311 660q-11 5 -23.5 7.5t-24.5 2.5q-28 0 -43 -13t-21.5 -30t-7 -34.5t-0.5 -27.5v-67h111v-58h-111v-440h-73v440h-97v58h97v64q0 26 4 56t18 55t40.5 41.5t72.5 16.5q14 0 32.5 -2t31.5 -8zM378 0v721h73v-721h-73z" />
    <glyph glyph-name="breve" unicode="&#x2d8;" horiz-adv-x="218" 
d="M229 710q0 -11 -5 -30.5t-18.5 -38.5t-36.5 -33.5t-60 -14.5q-36 0 -59.5 14.5t-36.5 33.5t-18 38.5t-5 30.5h43q3 -30 22.5 -50.5t53.5 -20.5t53.5 20.5t23.5 50.5h43z" />
    <glyph glyph-name="dotaccent" unicode="&#x2d9;" horiz-adv-x="218" 
d="M73 609v87h73v-87h-73z" />
    <glyph glyph-name="ring" unicode="&#x2da;" horiz-adv-x="218" 
d="M169 653q0 24 -17.5 41t-42.5 17t-42 -17t-17 -41q0 -25 17.5 -42t41.5 -17q25 0 42.5 17t17.5 42zM205 653q0 -20 -7.5 -36.5t-21 -29.5t-31 -20t-36.5 -7q-20 0 -37 7t-30 20t-20.5 29.5t-7.5 36.5q0 39 28 65.5t67 26.5q19 0 36.5 -7t31 -19.5t21 -29.5t7.5 -36z" />
    <glyph glyph-name="hungarumlaut" unicode="&#x2dd;" horiz-adv-x="218" 
d="M9 585h-60l72 136h85zM179 585h-60l72 136h85z" />
    <glyph glyph-name="ogonek" unicode="&#x2db;" horiz-adv-x="218" 
d="M200 -159q-18 -9 -37 -15t-45 -6q-40 0 -67 20.5t-27 57.5q0 30 24.5 56t70.5 46h39q-35 -21 -55.5 -44t-20.5 -54q0 -26 15.5 -37t32.5 -11q18 0 34 6.5t25 12.5z" />
    <glyph glyph-name="caron" unicode="&#x2c7;" horiz-adv-x="218" 
d="M146 585h-74l-103 136h65l75 -97l75 97h65z" />
    <glyph glyph-name="dotlessi" unicode="&#x131;" horiz-adv-x="218" 
d="M73 0v498h73v-498h-73z" />
    <glyph glyph-name="notequal" unicode="&#x2260;" 
d="M235 119l-76 -143l-52 28l62 115h-149v60h181l68 130h-249v60h281l77 147l53 -27l-64 -120h156v-60h-188l-69 -130h257v-60h-288z" />
    <glyph glyph-name="infinity" unicode="&#x221e;" horiz-adv-x="777" 
d="M354 252q-12 16 -26.5 34t-31 33t-36 24.5t-41.5 9.5q-21 0 -39.5 -8.5t-32 -22.5t-21.5 -33t-8 -40t7.5 -39.5t21 -33t32 -22.5t39.5 -8q24 0 43 11t35 27t30 34.5t28 33.5zM659 246q0 20 -7.5 38.5t-21 32.5t-31 22.5t-38.5 8.5q-20 0 -39.5 -11t-37.5 -27.5t-33 -35
t-27 -32.5q13 -17 26.5 -35t30 -32.5t35.5 -24t43 -9.5q21 0 39.5 8.5t32 23t21 33.5t7.5 40zM713 247q0 -33 -11.5 -62t-32 -50.5t-49 -34t-62.5 -12.5q-31 0 -55 9t-43.5 24.5t-36 36t-32.5 43.5q-17 -22 -34 -42t-37 -35t-43.5 -23.5t-53.5 -8.5q-33 0 -62 11.5t-50 32.5
t-33.5 49.5t-12.5 61.5t11.5 62t32 50.5t49 34t62.5 12.5q29 0 53 -9.5t44.5 -25.5t37.5 -36.5t32 -42.5q17 22 34 42t36 35.5t42.5 24.5t53.5 9q34 0 63 -11.5t50.5 -32.5t34 -49.5t12.5 -62.5z" />
    <glyph glyph-name="lessequal" unicode="&#x2264;" 
d="M20 -28v60h503v-60h-503zM20 263v66l503 188v-66l-420 -155l420 -157v-65z" />
    <glyph glyph-name="greaterequal" unicode="&#x2265;" 
d="M20 -28v60h503v-60h-503zM20 74v65l419 157l-419 155v66l503 -188v-66z" />
    <glyph glyph-name="partialdiff" unicode="&#x2202;" horiz-adv-x="600" 
d="M443 302q-30 32 -66 54t-82 22q-37 0 -64 -14.5t-45 -38.5t-26.5 -55.5t-8.5 -64.5q0 -31 8.5 -62t26 -55.5t43 -40t60.5 -15.5q31 0 53.5 14t39 36t27 51t17.5 59t11 58.5t6 51.5zM512 363q0 -35 -4 -77t-14 -83.5t-26.5 -80.5t-41.5 -69t-59.5 -48t-80.5 -18
q-47 0 -83.5 19.5t-62 51.5t-39 73t-13.5 84t13.5 81.5t38.5 66.5t61 44.5t81 16.5q49 0 89 -20t74 -54q1 8 0.5 17t-0.5 17q-1 27 -3.5 58.5t-9.5 63.5t-18.5 62t-29.5 53.5t-44 37.5t-61 14q-34 0 -65 -13.5t-54 -39.5l-36 44q33 27 67.5 41.5t77.5 14.5q71 0 118 -34.5
t74.5 -87t39 -115.5t11.5 -120z" />
    <glyph glyph-name="summation" unicode="&#x2211;" horiz-adv-x="750" 
d="M80 -200v60l274 448l-255 435v57h569v-58h-491l255 -434l-275 -445h528v-63h-605z" />
    <glyph glyph-name="product" unicode="&#x220f;" horiz-adv-x="750" 
d="M580 -200v937h-408v-937h-66v1000h539v-1000h-65z" />
    <glyph glyph-name="pi" unicode="&#x3c0;" horiz-adv-x="650" 
d="M528 8q-17 -9 -33 -14t-35 -5q-23 0 -38 7t-24 19.5t-12.5 29.5t-3.5 38v334h-152v-417h-65v417h-70v61h433v-61h-81v-321q0 -18 4 -33t26 -15q13 0 26.5 6t24.5 11v-57z" />
    <glyph glyph-name="integral" unicode="&#x222b;" 
d="M426 714q-21 10 -47 10q-28 0 -42.5 -13t-21 -30.5t-7.5 -35t-1 -27.5v-676q0 -27 -3.5 -56.5t-17 -54.5t-40.5 -41.5t-73 -16.5q-14 0 -31.5 2t-30.5 8l6 61q21 -10 47 -10q28 0 42.5 13t21 30.5t7.5 35t1 27.5v676q0 27 4 56.5t17.5 54.5t40.5 41.5t73 16.5
q14 0 31 -1.5t30 -8.5z" />
    <glyph glyph-name="Omega" unicode="&#x3a9;" horiz-adv-x="750" 
d="M676 400q0 -45 -14.5 -89t-40.5 -80t-63.5 -61.5t-83.5 -34.5v-73h201v-62h-263v177q44 1 80 19.5t61 48.5t38.5 69t13.5 81q0 47 -18.5 88t-50 72t-73.5 48.5t-88 17.5q-47 0 -88.5 -17.5t-72.5 -48.5t-49.5 -72t-18.5 -88q0 -42 13.5 -81t38.5 -69t60.5 -48.5
t79.5 -19.5v-177h-263v62h201v73q-46 9 -83 34.5t-63.5 62t-40.5 80t-14 88.5q0 61 25 113t66.5 89.5t95.5 58.5t113 21t113.5 -21t96 -58.5t66.5 -89.5t25 -113z" />
    <glyph glyph-name="Omega" unicode="&#x2126;" horiz-adv-x="750" 
d="M676 400q0 -45 -14.5 -89t-40.5 -80t-63.5 -61.5t-83.5 -34.5v-73h201v-62h-263v177q44 1 80 19.5t61 48.5t38.5 69t13.5 81q0 47 -18.5 88t-50 72t-73.5 48.5t-88 17.5q-47 0 -88.5 -17.5t-72.5 -48.5t-49.5 -72t-18.5 -88q0 -42 13.5 -81t38.5 -69t60.5 -48.5
t79.5 -19.5v-177h-263v62h201v73q-46 9 -83 34.5t-63.5 62t-40.5 80t-14 88.5q0 61 25 113t66.5 89.5t95.5 58.5t113 21t113.5 -21t96 -58.5t66.5 -89.5t25 -113z" />
    <glyph glyph-name="radical" unicode="&#x221a;" horiz-adv-x="600" 
d="M352 -200h-58l-158 345l-46 -22l-23 45l102 47l149 -331l160 916h56z" />
    <glyph glyph-name="approxequal" unicode="&#x2248;" horiz-adv-x="600" 
d="M563 232q-2 -26 -10.5 -51t-23.5 -44.5t-37 -31.5t-51 -12q-35 0 -71.5 11.5t-73 25t-71 25t-64.5 11.5q-34 0 -54 -24t-25 -56h-45q4 26 12.5 51.5t23 45t36 31.5t53.5 12q34 0 70.5 -11.5t72 -25t70 -24.5t66.5 -11q35 0 53.5 23t25.5 55h43zM563 402
q-2 -26 -10.5 -50.5t-23.5 -44t-37 -31.5t-51 -12q-35 0 -71.5 11t-73 24.5t-71 25t-64.5 11.5q-34 0 -54 -24t-25 -56h-45q4 26 12.5 51.5t23 45.5t36 32t53.5 12q34 0 70.5 -11.5t72 -25t70 -25t66.5 -11.5q35 0 53.5 23t25.5 55h43z" />
    <glyph glyph-name="Delta" unicode="&#x394;" horiz-adv-x="750" 
d="M374 605l-227 -546h456zM55 0l280 672h78l282 -672h-640z" />
    <glyph glyph-name="Delta" unicode="&#x2206;" horiz-adv-x="750" 
d="M374 605l-227 -546h456zM55 0l280 672h78l282 -672h-640z" />
    <glyph glyph-name="lozenge" unicode="&#x25ca;" horiz-adv-x="600" 
d="M300 733l-137 -333l137 -333l137 333zM331 0h-63l-170 400l170 400h63l172 -400z" />
    <glyph glyph-name="dollar" unicode="$" 
d="M468 180q0 -40 -13.5 -72t-37.5 -56t-56.5 -38.5t-69.5 -20.5v-101h-55v97q-39 0 -77.5 6.5t-74.5 21.5l5 77q35 -22 73.5 -30.5t79.5 -8.5q30 0 57 7t46.5 22t31 38.5t11.5 56.5q0 22 -10 40t-26.5 33t-38 28t-44.5 26l-69 37q-24 13 -45.5 28t-38.5 34t-27 43t-10 54
q0 38 13.5 67.5t37 50.5t54 34.5t64.5 18.5v101h55v-97q34 0 66.5 -5t63.5 -16l-6 -71q-26 14 -61 20t-66 6q-26 0 -51.5 -5.5t-45.5 -17.5t-32.5 -32.5t-12.5 -50.5q0 -20 8 -35.5t22 -29t32 -25t38 -21.5l70 -37q26 -14 51.5 -30.5t45 -37.5t31.5 -47.5t12 -61.5z" />
    <glyph glyph-name="Euro" 
d="M500 585q-23 13 -51 19t-55 6q-42 0 -74.5 -15t-56.5 -40t-39.5 -59t-23.5 -71h269l-11 -50h-266q-1 -11 -1.5 -21t-0.5 -21t0.5 -21t1.5 -21h250l-11 -50h-231q7 -38 22.5 -71.5t39.5 -59t56.5 -40t74.5 -14.5q26 0 55.5 5.5t52.5 19.5l6 -68q-24 -14 -57.5 -19
t-61.5 -5q-57 0 -103 19.5t-80 53t-56 79.5t-31 100h-89l11 50h72q-1 11 -1.5 21.5t-0.5 21.5q0 10 0.5 20.5t1.5 20.5h-82l11 50h78q10 51 32 97t56 80.5t79.5 54.5t101.5 20q31 0 64.5 -6.5t61.5 -20.5z" />
    <glyph glyph-name="Euro" unicode="&#x20ac;" 
d="M500 585q-23 13 -51 19t-55 6q-42 0 -74.5 -15t-56.5 -40t-39.5 -59t-23.5 -71h269l-11 -50h-266q-1 -11 -1.5 -21t-0.5 -21t0.5 -21t1.5 -21h250l-11 -50h-231q7 -38 22.5 -71.5t39.5 -59t56.5 -40t74.5 -14.5q26 0 55.5 5.5t52.5 19.5l6 -68q-24 -14 -57.5 -19
t-61.5 -5q-57 0 -103 19.5t-80 53t-56 79.5t-31 100h-89l11 50h72q-1 11 -1.5 21.5t-0.5 21.5q0 10 0.5 20.5t1.5 20.5h-82l11 50h78q10 51 32 97t56 80.5t79.5 54.5t101.5 20q31 0 64.5 -6.5t61.5 -20.5z" />
    <glyph glyph-name="exclam" unicode="!" horiz-adv-x="268" 
d="M91 0v89h86v-89h-86zM166 169h-64l-13 498h90z" />
    <glyph glyph-name="quotedbl" unicode="&#x22;" horiz-adv-x="415" 
d="M102 459v208h67v-208h-67zM246 459v208h67v-208h-67z" />
    <glyph glyph-name="numbersign" unicode="#" 
d="M201 405l-23 -143h164l23 143h-164zM420 405l-23 -143h82v-53h-90l-31 -209h-55l31 209h-164l-32 -209h-54l31 209h-82v53h90l23 143h-82v53h90l32 209h55l-32 -209h164l32 209h55l-32 -209h82v-53h-90z" />
    <glyph glyph-name="Scaron" unicode="&#x160;" horiz-adv-x="484" 
d="M439 180q0 -47 -18.5 -82.5t-49.5 -59.5t-72 -36.5t-87 -12.5q-41 0 -81.5 6t-78.5 22l5 77q35 -22 73.5 -30.5t80.5 -8.5q30 0 57 7t46.5 22t31 38.5t11.5 56.5q0 22 -10 40t-26.5 33t-38 28t-44.5 25l-69 37q-24 13 -46.5 28.5t-39 34.5t-26.5 43t-10 54q0 45 19.5 78
t51 54.5t71 32t80.5 10.5q35 0 69 -5t66 -16l-6 -71q-28 14 -62.5 20t-65.5 6q-26 0 -51.5 -5.5t-45.5 -17.5t-32.5 -32.5t-12.5 -50.5q0 -20 8 -35.5t22 -28.5t32 -24.5t38 -21.5l69 -37q28 -15 53.5 -31.5t45 -37.5t31.5 -47.5t12 -61.5zM280 724h-74l-103 136h65l75 -96
l74 96h66z" />
    <glyph glyph-name="scaron" unicode="&#x161;" horiz-adv-x="389" 
d="M353 134q0 -36 -15 -63t-39.5 -45.5t-56 -27.5t-64.5 -9q-36 0 -72 5t-70 18l6 68q30 -16 64 -23.5t68 -7.5q42 0 73 20.5t31 62.5q0 30 -18 49t-44.5 33t-58 26t-58 28.5t-44.5 41t-18 62.5q0 36 15 61.5t39.5 42t55 24.5t61.5 8t63 -5.5t61 -16.5l-6 -61
q-24 11 -55 17.5t-57 6.5q-18 0 -36 -3.5t-33 -12t-24 -23t-9 -37.5t18 -38.5t44.5 -28t58 -25.5t58 -31.5t44.5 -46t18 -69.5zM235 585h-74l-103 136h65l75 -97l75 97h65z" />
    <glyph glyph-name="currency" unicode="&#xa4;" 
d="M422 332q0 31 -12 58.5t-32.5 48t-48 32.5t-58.5 12q-32 0 -59 -12t-47.5 -32t-32 -48t-11.5 -59t12 -58.5t32 -47.5t47.5 -32t58.5 -12t58.5 12t48 32t32.5 47.5t12 58.5zM463 100l-64 65q-56 -45 -127 -45q-35 0 -67.5 12t-60.5 32l-63 -63l-41 40l63 64
q-22 29 -32.5 59.5t-10.5 68.5q0 70 43 128l-64 64l41 40l63 -64q56 43 128 43q38 0 68.5 -10.5t60.5 -31.5l63 62l41 -40l-64 -63q20 -29 31.5 -60.5t11.5 -68.5q0 -70 -43 -126l64 -66z" />
    <glyph glyph-name="brokenbar" unicode="&#xa6;" horiz-adv-x="216" 
d="M72 -216v397h73v-397h-73zM72 379v396h73v-396h-73z" />
    <glyph glyph-name="minus" unicode="&#x2212;" 
d="M20 215v59h503v-59h-503z" />
    <glyph glyph-name="twosuperior" unicode="&#xb2;" horiz-adv-x="428" 
d="M67 270v52l92 85q16 15 35.5 32t37 35.5t29.5 39.5t12 43q0 32 -23.5 49t-56.5 17q-29 0 -56 -9t-51 -20l-3 57q28 11 56 18.5t59 7.5q28 0 53.5 -7.5t45 -22t31 -36.5t11.5 -50q0 -27 -13.5 -51.5t-33 -47t-42.5 -42t-41 -36.5l-68 -63h205v-51h-279z" />
    <glyph glyph-name="threesuperior" unicode="&#xb3;" horiz-adv-x="425" 
d="M339 386q0 -32 -14.5 -55t-38.5 -37.5t-55 -21.5t-64 -7q-29 0 -56 3t-55 12l4 55q25 -10 52.5 -13.5t54.5 -3.5q19 0 38.5 4t34.5 13t24.5 22.5t9.5 32.5q0 18 -9.5 30t-24.5 19.5t-33.5 10.5t-36.5 3h-57v49h49q19 0 37.5 4t33.5 12t24 21.5t9 31.5q0 16 -9.5 26
t-23.5 16t-31.5 8.5t-32.5 2.5q-52 0 -98 -17l-3 52q27 8 54.5 13t56.5 5q26 0 53 -5t49 -17t36 -31t14 -47q0 -38 -25.5 -63.5t-64.5 -34.5q40 -5 69 -29.5t29 -63.5z" />
    <glyph glyph-name="onesuperior" unicode="&#xb9;" horiz-adv-x="343" 
d="M147 266v339l-75 -57l-28 39l110 80h55v-401h-62z" />
    <glyph glyph-name="onequarter" unicode="&#xbc;" horiz-adv-x="834" 
d="M638 350l-160 -209h160v209zM147 266v339l-75 -57l-28 39l110 80h55v-401h-62zM194 -24h-59l424 715h59zM699 90v-90h-62v90h-204v57l195 254h71v-260h64v-51h-64z" />
    <glyph glyph-name="onehalf" unicode="&#xbd;" horiz-adv-x="865" 
d="M147 266v339l-75 -57l-28 39l110 80h55v-401h-62zM194 -24h-59l424 715h59zM508 0v52l92 85q16 15 35.5 32t37 35.5t29.5 39.5t12 43q0 32 -23.5 49t-56.5 17q-29 0 -56 -9t-51 -20l-3 57q28 11 56 18.5t59 7.5q28 0 53.5 -7.5t45 -22t31 -36.5t11.5 -50
q0 -27 -13.5 -51.5t-33 -47t-42.5 -42t-41 -36.5l-68 -63h205v-51h-279z" />
    <glyph glyph-name="threequarters" unicode="&#xbe;" horiz-adv-x="937" 
d="M741 350l-160 -209h160v209zM339 386q0 -32 -14.5 -55t-38.5 -37.5t-55 -21.5t-64 -7q-29 0 -56 3t-55 12l4 55q25 -10 52.5 -13.5t54.5 -3.5q19 0 38.5 4t34.5 13t24.5 22.5t9.5 32.5q0 18 -9.5 30t-24.5 19.5t-33.5 10.5t-36.5 3h-57v49h49q19 0 37.5 4t33.5 12
t24 21.5t9 31.5q0 16 -9.5 26t-23.5 16t-31.5 8.5t-32.5 2.5q-52 0 -98 -17l-3 52q27 8 54.5 13t56.5 5q26 0 53 -5t49 -17t36 -31t14 -47q0 -38 -25.5 -63.5t-64.5 -34.5q40 -5 69 -29.5t29 -63.5zM297 -24h-59l424 715h59zM802 90v-90h-62v90h-204v57l195 254h71v-260h63
v-51h-63z" />
    <glyph glyph-name="Eth" unicode="&#xd0;" horiz-adv-x="651" 
d="M517 333q0 126 -67 197.5t-194 71.5h-92v-237h176v-60h-176v-240h56q70 0 125 14.5t93.5 46.5t58.5 83t20 124zM600 333q0 -89 -28 -152t-78 -103.5t-119.5 -59t-152.5 -18.5h-137v305h-74v60h74v302h174q80 0 143.5 -21.5t107.5 -64t67 -105t23 -143.5z" />
    <glyph glyph-name="multiply" unicode="&#xd7;" 
d="M464 7l-192 194l-193 -193l-45 44l193 192l-193 193l44 45l193 -194l193 193l45 -44l-193 -193l193 -192z" />
    <glyph glyph-name="Yacute" unicode="&#xdd;" horiz-adv-x="576" 
d="M327 278v-278h-79v278l-246 389h88l200 -325l200 325h85zM307 724h-59l71 136h86z" />
    <glyph glyph-name="Thorn" unicode="&#xde;" horiz-adv-x="508" 
d="M398 340q0 63 -38 95.5t-99 32.5h-98v-258h51q36 0 69 4t58.5 17.5t41 39t15.5 69.5zM480 341q0 -51 -18.5 -87.5t-49 -60.5t-70 -35.5t-81.5 -11.5h-97v-146h-79v667h79v-135h103q45 0 84 -12t67.5 -36t45 -60t16.5 -83z" />
    <glyph glyph-name="eth" unicode="&#xf0;" horiz-adv-x="551" 
d="M431 244q0 37 -8.5 71.5t-27 61t-48 42.5t-71.5 16q-41 0 -70.5 -16t-48 -43t-27.5 -61.5t-9 -70.5q0 -37 9 -72t28 -62t48 -43.5t70 -16.5t70.5 16.5t48 43.5t27.5 62t9 72zM509 282q0 -60 -14 -113.5t-42.5 -93.5t-72.5 -63t-105 -23q-57 0 -100.5 19.5t-73 53.5
t-44 81t-14.5 101q0 52 14.5 98t43.5 80.5t71.5 54t98.5 19.5q94 0 155 -76q-13 54 -41.5 102t-71.5 82l-108 -64l-32 41l93 55q-26 17 -62 30t-67 20l34 45q37 -5 79 -22.5t73 -37.5l101 60l32 -41l-85 -51q40 -36 66.5 -77.5t42.5 -87.5t22.5 -94.5t6.5 -97.5z" />
    <glyph glyph-name="yacute" unicode="&#xfd;" horiz-adv-x="444" 
d="M234 -87q-10 -29 -23 -54.5t-30 -44.5t-39.5 -30t-50.5 -11q-19 0 -31 2t-29 6l6 63q11 -4 22 -6.5t23 -2.5q21 0 36.5 13t26.5 31.5t18.5 38t11.5 32.5l10 33l-173 515h79l134 -429l133 429h76zM251 585h-59l71 136h85z" />
    <glyph glyph-name="thorn" unicode="&#xfe;" horiz-adv-x="543" 
d="M422 251q0 34 -5.5 69t-21 63t-42.5 45.5t-69 17.5q-39 0 -66 -18t-43.5 -46.5t-24 -63t-7.5 -67.5t7 -68t23.5 -64.5t43.5 -48.5t67 -19q42 0 68.5 18.5t42 47.5t21.5 64.5t6 69.5zM501 251q0 -48 -11 -95t-35 -84t-63 -60t-94 -23q-49 0 -91 24t-61 68v-297h-73v937h73
v-307q19 44 62.5 69t90.5 25q57 0 95.5 -21.5t62.5 -57.5t34 -82.5t10 -95.5z" />
    <glyph glyph-name="Lslash" unicode="&#x141;" horiz-adv-x="452" 
d="M85 0v292l-75 -72v66l75 72v309h79v-246l136 131v-67l-136 -131v-286h270v-68h-349z" />
    <glyph glyph-name="lslash" unicode="&#x142;" horiz-adv-x="218" 
d="M147 385v-385h-74v327l-68 -68v66l68 67v329h74v-270l69 68v-66z" />
    <glyph glyph-name="zcaron" unicode="&#x17e;" horiz-adv-x="424" 
d="M30 0v59l281 381h-270v58h352v-59l-281 -381h283v-58h-365zM254 585h-74l-103 136h66l75 -97l73 97h65z" />
    <glyph glyph-name="Zcaron" unicode="&#x17d;" horiz-adv-x="494" 
d="M26 0v66l348 535h-336v66h422v-66l-345 -535h353v-66h-442zM283 724h-73l-103 136h65l75 -96l73 96h65z" />
    </font>
</defs>
</svg>
